#N canvas 0 78 1720 1362 10;
#X obj 41 27 master_clock;
#X obj 39 167 32_step_note_sequencer;
#X obj 556 773 MIDI_out;
#X msg 38 784, f 61;
#X obj 27 874 32_step_note_sequencer;
#X obj 536 1496 MIDI_out;
#X msg 26 1491, f 61;
#X connect 0 0 1 0;
#X connect 0 0 4 0;
#X connect 0 1 1 1;
#X connect 0 1 4 1;
#X connect 1 0 3 0;
#X connect 1 1 2 0;
#X connect 1 2 2 1;
#X connect 4 0 6 0;
#X connect 4 1 5 0;
#X connect 4 2 5 1;
