#N canvas 1 78 1705 1037 10;
#X floatatom 722 541 3 1 32 1 measure_beats #0-to_beats #0-from_beats
, f 3;
#X obj 572 521 hsl 128 15 0 1 0 0 \$0-from_delay \$0-to_delay master_clock_delay
0 -8 0 11 -204786 -1 -1 0 1;
#X floatatom 722 520 3 1 32 1 sequence_steps #0-to_steps #0-from_steps
, f 3;
#X floatatom 89 300 3 0 0 0 low_note #0-to_low_note #0-from_low_note
, f 3;
#X obj 119 58 vsl 23 256 0 1 0 0 \$0-from_pitch01 \$0-to_pitch01 1
8 -9 0 10 -204786 -1 -1 0 1;
#X obj 119 336 vsl 23 64 0 1 0 0 \$0-from_vel01 \$0-to_vel01 empty
0 -9 0 10 -204786 -1 -1 6300 1;
#X obj 119 407 vsl 23 64 0 1 0 0 \$0-from_gate01 \$0-to_gate01 empty
0 -9 0 10 -204786 -1 -1 3100 1;
#X obj 143 58 vsl 23 256 0 1 0 0 \$0-from_pitch02 \$0-to_pitch02 2
8 -9 0 10 -191407 -1 -1 900 1;
#X obj 143 336 vsl 23 64 0 1 0 0 \$0-from_vel02 \$0-to_vel02 empty
0 -9 0 10 -191407 -1 -1 6300 1;
#X obj 143 407 vsl 23 64 0 1 0 0 \$0-from_gate02 \$0-to_gate02 empty
0 -9 0 10 -191407 -1 -1 3100 1;
#X obj 167 58 vsl 23 256 0 1 0 0 \$0-from_pitch03 \$0-to_pitch03 3
8 -9 0 10 -204786 -1 -1 1700 1;
#X obj 167 336 vsl 23 64 0 1 0 0 \$0-from_vel03 \$0-to_vel03 empty
0 -9 0 10 -204786 -1 -1 6300 1;
#X obj 167 407 vsl 23 64 0 1 0 0 \$0-from_gate03 \$0-to_gate03 empty
0 -9 0 10 -204786 -1 -1 3100 1;
#X obj 191 58 vsl 23 256 0 1 0 0 \$0-from_pitch04 \$0-to_pitch04 4
8 -9 0 10 -191407 -1 -1 2600 1;
#X obj 191 336 vsl 23 64 0 1 0 0 \$0-from_vel04 \$0-to_vel04 empty
0 -9 0 10 -191407 -1 -1 6300 1;
#X obj 191 407 vsl 23 64 0 1 0 0 \$0-from_gate04 \$0-to_gate04 empty
0 -9 0 10 -191407 -1 -1 3100 1;
#X obj 215 58 vsl 23 256 0 1 0 0 \$0-from_pitch05 \$0-to_pitch05 5
8 -9 0 10 -204786 -1 -1 3500 1;
#X obj 215 336 vsl 23 64 0 1 0 0 \$0-from_vel05 \$0-to_vel05 empty
0 -9 0 10 -204786 -1 -1 6300 1;
#X obj 215 407 vsl 23 64 0 1 0 0 \$0-from_gate05 \$0-to_gate05 empty
0 -9 0 10 -204786 -1 -1 3100 1;
#X obj 239 58 vsl 23 256 0 1 0 0 \$0-from_pitch06 \$0-to_pitch06 6
8 -9 0 10 -191407 -1 -1 4100 1;
#X obj 239 336 vsl 23 64 0 1 0 0 \$0-from_vel06 \$0-to_vel06 empty
0 -9 0 10 -191407 -1 -1 6300 1;
#X obj 239 407 vsl 23 64 0 1 0 0 \$0-from_gate06 \$0-to_gate06 empty
0 -9 0 10 -191407 -1 -1 3100 1;
#X obj 263 58 vsl 23 256 0 1 0 0 \$0-from_pitch07 \$0-to_pitch07 7
8 -9 0 10 -204786 -1 -1 5000 1;
#X obj 263 336 vsl 23 64 0 1 0 0 \$0-from_vel07 \$0-to_vel07 empty
0 -9 0 10 -204786 -1 -1 6300 1;
#X obj 263 407 vsl 23 64 0 1 0 0 \$0-from_gate07 \$0-to_gate07 empty
0 -9 0 10 -204786 -1 -1 3100 1;
#X obj 287 58 vsl 23 256 0 1 0 0 \$0-from_pitch08 \$0-to_pitch08 8
8 -9 0 10 -191407 -1 -1 6100 1;
#X obj 287 336 vsl 23 64 0 1 0 0 \$0-from_vel08 \$0-to_vel08 empty
0 -9 0 10 -191407 -1 -1 6300 1;
#X obj 287 407 vsl 23 64 0 1 0 0 \$0-from_gate08 \$0-to_gate08 empty
0 -9 0 10 -191407 -1 -1 3100 1;
#X obj 141 1601 f 0;
#X obj 107 1600 + 1;
#X obj 311 58 vsl 23 256 0 1 0 0 \$0-from_pitch09 \$0-to_pitch09 9
8 -9 0 10 -204786 -1 -1 6800 1;
#X obj 311 336 vsl 23 64 0 1 0 0 \$0-from_vel09 \$0-to_vel09 empty
0 -9 0 10 -204786 -1 -1 6300 1;
#X obj 311 407 vsl 23 64 0 1 0 0 \$0-from_gate09 \$0-to_gate09 empty
0 -9 0 10 -204786 -1 -1 3100 1;
#X obj 335 58 vsl 23 256 0 1 0 0 \$0-from_pitch10 \$0-to_pitch10 10
5 -9 0 10 -191407 -1 -1 7700 1;
#X obj 335 336 vsl 23 64 0 1 0 0 \$0-from_vel10 \$0-to_vel10 empty
0 -9 0 10 -191407 -1 -1 6300 1;
#X obj 335 407 vsl 23 64 0 1 0 0 \$0-from_gate10 \$0-to_gate10 empty
0 -9 0 10 -191407 -1 -1 3100 1;
#X obj 359 58 vsl 23 256 0 1 0 0 \$0-from_pitch11 \$0-to_pitch11 11
5 -9 0 10 -204786 -1 -1 8700 1;
#X obj 359 336 vsl 23 64 0 1 0 0 \$0-from_vel11 \$0-to_vel11 empty
0 -9 0 10 -204786 -1 -1 6300 1;
#X obj 359 407 vsl 23 64 0 1 0 0 \$0-from_gate11 \$0-to_gate11 empty
0 -9 0 10 -204786 -1 -1 3100 1;
#X obj 383 58 vsl 23 256 0 1 0 0 \$0-from_pitch12 \$0-to_pitch12 12
5 -9 0 10 -191407 -1 -1 9500 1;
#X obj 383 336 vsl 23 64 0 1 0 0 \$0-from_vel12 \$0-to_vel12 empty
0 -9 0 10 -191407 -1 -1 6300 1;
#X obj 383 407 vsl 23 64 0 1 0 0 \$0-from_gate12 \$0-to_gate12 empty
0 -9 0 10 -191407 -1 -1 3100 1;
#X obj 407 58 vsl 23 256 0 1 0 0 \$0-from_pitch13 \$0-to_pitch13 13
5 -9 0 10 -204786 -1 -1 9800 1;
#X obj 407 336 vsl 23 64 0 1 0 0 \$0-from_vel13 \$0-to_vel13 empty
0 -9 0 10 -204786 -1 -1 6300 1;
#X obj 407 407 vsl 23 64 0 1 0 0 \$0-from_gate13 \$0-to_gate13 empty
0 -9 0 10 -204786 -1 -1 3100 1;
#X obj 431 58 vsl 23 256 0 1 0 0 \$0-from_pitch14 \$0-to_pitch14 14
5 -9 0 10 -191407 -1 -1 10500 1;
#X obj 431 336 vsl 23 64 0 1 0 0 \$0-from_vel14 \$0-to_vel14 empty
0 -9 0 10 -191407 -1 -1 6300 1;
#X obj 431 407 vsl 23 64 0 1 0 0 \$0-from_gate14 \$0-to_gate14 empty
0 -9 0 10 -191407 -1 -1 3100 1;
#X obj 455 58 vsl 23 256 0 1 0 0 \$0-from_pitch15 \$0-to_pitch15 15
5 -9 0 10 -204786 -1 -1 11500 1;
#X obj 455 336 vsl 23 64 0 1 0 0 \$0-from_vel15 \$0-to_vel15 empty
0 -9 0 10 -204786 -1 -1 6300 1;
#X obj 455 407 vsl 23 64 0 1 0 0 \$0-from_gate15 \$0-to_gate15 empty
0 -9 0 10 -204786 -1 -1 3100 1;
#X obj 479 58 vsl 23 256 0 1 0 0 \$0-from_pitch16 \$0-to_pitch16 16
5 -9 0 10 -191407 -1 -1 12000 1;
#X obj 479 336 vsl 23 64 0 1 0 0 \$0-from_vel16 \$0-to_vel16 empty
0 -9 0 10 -191407 -1 -1 6300 1;
#X obj 479 407 vsl 23 64 0 1 0 0 \$0-from_gate16 \$0-to_gate16 empty
0 -9 0 10 -191407 -1 -1 3100 1;
#X obj 949 1856 f;
#X obj 119 476 bng 23 250 50 0 empty \$0-to_pitch01 empty 17 7 0 10
-99865 -4034 -1;
#X obj 143 476 bng 23 250 50 0 empty \$0-to_pitch02 empty 17 7 0 10
-99865 -4034 -1;
#X obj 167 476 bng 23 250 50 0 empty \$0-to_pitch03 empty 17 7 0 10
-99865 -4034 -1;
#X obj 191 476 bng 23 250 50 0 empty \$0-to_pitch04 empty 17 7 0 10
-99865 -4034 -1;
#X obj 215 476 bng 23 250 50 0 empty \$0-to_pitch05 empty 17 7 0 10
-99865 -4034 -1;
#X obj 239 476 bng 23 250 50 0 empty \$0-to_pitch06 empty 17 7 0 10
-99865 -4034 -1;
#X obj 263 476 bng 23 250 50 0 empty \$0-to_pitch07 empty 17 7 0 10
-99865 -4034 -1;
#X obj 287 476 bng 23 250 50 0 empty \$0-to_pitch08 empty 17 7 0 10
-99865 -4034 -1;
#X obj 311 476 bng 23 250 50 0 empty \$0-to_pitch09 empty 17 7 0 10
-99865 -4034 -1;
#X obj 335 476 bng 23 250 50 0 empty \$0-to_pitch10 empty 17 7 0 10
-99865 -4034 -1;
#X obj 359 476 bng 23 250 50 0 empty \$0-to_pitch11 empty 17 7 0 10
-99865 -4034 -1;
#X obj 383 476 bng 23 250 50 0 empty \$0-to_pitch12 empty 17 7 0 10
-99865 -4034 -1;
#X obj 407 476 bng 23 250 50 0 empty \$0-to_pitch13 empty 17 7 0 10
-99865 -4034 -1;
#X obj 431 476 bng 23 250 50 0 empty \$0-to_pitch14 empty 17 7 0 10
-99865 -4034 -1;
#X obj 455 476 bng 23 250 50 0 empty \$0-to_pitch15 empty 17 7 0 10
-99865 -4034 -1;
#X obj 479 476 bng 23 250 50 0 empty \$0-to_pitch16 empty 17 7 0 10
-99865 -4034 -1;
#X obj 218 1546 bng 15 250 50 0 empty empty empty 17 7 0 10 -262144
-1 -1;
#X msg 218 1566 0;
#X text 46 354 velocity;
#X text 40 426 gate time;
#N canvas 95 494 626 300 display_note_number 0;
#X floatatom 100 100 3 0 0 0 - - -, f 3;
#X obj 398 19 r \$0-from_low_note;
#X obj 198 19 r \$0-from_high_note;
#X obj 198 77 -;
#X obj 159 116 *;
#X obj 159 141 +;
#X obj 209 55 bng 15 250 50 0 empty empty empty 17 7 0 10 -262144 -1
-1;
#X obj 159 163 i;
#X obj 145 20 inlet;
#X connect 1 0 3 1;
#X connect 1 0 5 1;
#X connect 1 0 6 0;
#X connect 2 0 3 0;
#X connect 3 0 4 1;
#X connect 4 0 5 0;
#X connect 5 0 7 0;
#X connect 6 0 3 0;
#X connect 7 0 0 0;
#X connect 8 0 4 0;
#X coords 0 -1 1 1 23 14 2 100 100;
#X restore 119 318 pd display_note_number;
#X obj 503 58 vsl 23 256 0 1 0 0 \$0-from_pitch17 \$0-to_pitch17 17
5 -9 0 10 -204786 -1 -1 12800 1;
#X obj 503 336 vsl 23 64 0 1 0 0 \$0-from_vel17 \$0-to_vel17 empty
0 -9 0 10 -204786 -1 -1 6300 1;
#X obj 503 407 vsl 23 64 0 1 0 0 \$0-from_gate17 \$0-to_gate17 empty
0 -9 0 10 -204786 -1 -1 3100 1;
#X obj 527 58 vsl 23 256 0 1 0 0 \$0-from_pitch18 \$0-to_pitch18 18
5 -9 0 10 -191407 -1 -1 13600 1;
#X obj 527 336 vsl 23 64 0 1 0 0 \$0-from_vel18 \$0-to_vel18 empty
0 -9 0 10 -191407 -1 -1 6300 1;
#X obj 527 407 vsl 23 64 0 1 0 0 \$0-from_gate18 \$0-to_gate18 empty
0 -9 0 10 -191407 -1 -1 3100 1;
#X obj 551 58 vsl 23 256 0 1 0 0 \$0-from_pitch19 \$0-to_pitch19 19
5 -9 0 10 -204786 -1 -1 14500 1;
#X obj 551 336 vsl 23 64 0 1 0 0 \$0-from_vel19 \$0-to_vel19 empty
0 -9 0 10 -204786 -1 -1 6300 1;
#X obj 551 407 vsl 23 64 0 1 0 0 \$0-from_gate19 \$0-to_gate19 empty
0 -9 0 10 -204786 -1 -1 3100 1;
#X obj 575 58 vsl 23 256 0 1 0 0 \$0-from_pitch20 \$0-to_pitch20 20
5 -9 0 10 -191407 -1 -1 15900 1;
#X obj 575 336 vsl 23 64 0 1 0 0 \$0-from_vel20 \$0-to_vel20 empty
0 -9 0 10 -191407 -1 -1 6300 1;
#X obj 575 407 vsl 23 64 0 1 0 0 \$0-from_gate20 \$0-to_gate20 empty
0 -9 0 10 -191407 -1 -1 3100 1;
#X obj 599 58 vsl 23 256 0 1 0 0 \$0-from_pitch21 \$0-to_pitch21 21
5 -9 0 10 -204786 -1 -1 16200 1;
#X obj 599 336 vsl 23 64 0 1 0 0 \$0-from_vel21 \$0-to_vel21 empty
0 -9 0 10 -204786 -1 -1 6300 1;
#X obj 599 407 vsl 23 64 0 1 0 0 \$0-from_gate21 \$0-to_gate21 empty
0 -9 0 10 -204786 -1 -1 3100 1;
#X obj 623 58 vsl 23 256 0 1 0 0 \$0-from_pitch22 \$0-to_pitch22 22
5 -9 0 10 -191407 -1 -1 17400 1;
#X obj 623 336 vsl 23 64 0 1 0 0 \$0-from_vel22 \$0-to_vel22 empty
0 -9 0 10 -191407 -1 -1 6300 1;
#X obj 623 407 vsl 23 64 0 1 0 0 \$0-from_gate22 \$0-to_gate22 empty
0 -9 0 10 -191407 -1 -1 3100 1;
#X obj 647 58 vsl 23 256 0 1 0 0 \$0-from_pitch23 \$0-to_pitch23 23
5 -9 0 10 -204786 -1 -1 18100 1;
#X obj 647 336 vsl 23 64 0 1 0 0 \$0-from_vel23 \$0-to_vel23 empty
0 -9 0 10 -204786 -1 -1 6300 1;
#X obj 647 407 vsl 23 64 0 1 0 0 \$0-from_gate23 \$0-to_gate23 empty
0 -9 0 10 -204786 -1 -1 3100 1;
#X obj 671 58 vsl 23 256 0 1 0 0 \$0-from_pitch24 \$0-to_pitch24 24
5 -9 0 10 -191407 -1 -1 19100 1;
#X obj 671 336 vsl 23 64 0 1 0 0 \$0-from_vel24 \$0-to_vel24 empty
0 -9 0 10 -191407 -1 -1 6300 1;
#X obj 671 407 vsl 23 64 0 1 0 0 \$0-from_gate24 \$0-to_gate24 empty
0 -9 0 10 -191407 -1 -1 3100 1;
#X obj 695 58 vsl 23 256 0 1 0 0 \$0-from_pitch25 \$0-to_pitch25 25
5 -9 0 10 -204786 -1 -1 19900 1;
#X obj 695 336 vsl 23 64 0 1 0 0 \$0-from_vel25 \$0-to_vel25 empty
0 -9 0 10 -204786 -1 -1 6300 1;
#X obj 695 407 vsl 23 64 0 1 0 0 \$0-from_gate25 \$0-to_gate25 empty
0 -9 0 10 -204786 -1 -1 3100 1;
#X obj 719 58 vsl 23 256 0 1 0 0 \$0-from_pitch26 \$0-to_pitch26 26
5 -9 0 10 -191407 -1 -1 20700 1;
#X obj 719 336 vsl 23 64 0 1 0 0 \$0-from_vel26 \$0-to_vel26 empty
0 -9 0 10 -191407 -1 -1 6300 1;
#X obj 719 407 vsl 23 64 0 1 0 0 \$0-from_gate26 \$0-to_gate26 empty
0 -9 0 10 -191407 -1 -1 3100 1;
#X obj 743 58 vsl 23 256 0 1 0 0 \$0-from_pitch27 \$0-to_pitch27 27
5 -9 0 10 -204786 -1 -1 21000 1;
#X obj 743 336 vsl 23 64 0 1 0 0 \$0-from_vel27 \$0-to_vel27 empty
0 -9 0 10 -204786 -1 -1 6300 1;
#X obj 743 407 vsl 23 64 0 1 0 0 \$0-from_gate27 \$0-to_gate27 empty
0 -9 0 10 -204786 -1 -1 3100 1;
#X obj 767 58 vsl 23 256 0 1 0 0 \$0-from_pitch28 \$0-to_pitch28 28
5 -9 0 10 -191407 -1 -1 21600 1;
#X obj 767 336 vsl 23 64 0 1 0 0 \$0-from_vel28 \$0-to_vel28 empty
0 -9 0 10 -191407 -1 -1 6300 1;
#X obj 767 407 vsl 23 64 0 1 0 0 \$0-from_gate28 \$0-to_gate28 empty
0 -9 0 10 -191407 -1 -1 3100 1;
#X obj 791 58 vsl 23 256 0 1 0 0 \$0-from_pitch29 \$0-to_pitch29 29
5 -9 0 10 -204786 -1 -1 22500 1;
#X obj 791 336 vsl 23 64 0 1 0 0 \$0-from_vel29 \$0-to_vel29 empty
0 -9 0 10 -204786 -1 -1 6300 1;
#X obj 791 407 vsl 23 64 0 1 0 0 \$0-from_gate29 \$0-to_gate29 empty
0 -9 0 10 -204786 -1 -1 3100 1;
#X obj 815 58 vsl 23 256 0 1 0 0 \$0-from_pitch30 \$0-to_pitch30 30
5 -9 0 10 -191407 -1 -1 23200 1;
#X obj 815 336 vsl 23 64 0 1 0 0 \$0-from_vel30 \$0-to_vel30 empty
0 -9 0 10 -191407 -1 -1 6300 1;
#X obj 815 407 vsl 23 64 0 1 0 0 \$0-from_gate30 \$0-to_gate30 empty
0 -9 0 10 -191407 -1 -1 3100 1;
#X obj 839 58 vsl 23 256 0 1 0 0 \$0-from_pitch31 \$0-to_pitch31 31
5 -9 0 10 -204786 -1 -1 24000 1;
#X obj 839 336 vsl 23 64 0 1 0 0 \$0-from_vel31 \$0-to_vel31 empty
0 -9 0 10 -204786 -1 -1 6300 1;
#X obj 839 407 vsl 23 64 0 1 0 0 \$0-from_gate31 \$0-to_gate31 empty
0 -9 0 10 -204786 -1 -1 3100 1;
#X obj 863 58 vsl 23 256 0 1 0 0 \$0-from_pitch32 \$0-to_pitch32 32
5 -9 0 10 -191407 -1 -1 24900 1;
#X obj 863 336 vsl 23 64 0 1 0 0 \$0-from_vel32 \$0-to_vel32 empty
0 -9 0 10 -191407 -1 -1 6300 1;
#X obj 863 407 vsl 23 64 0 1 0 0 \$0-from_gate32 \$0-to_gate32 empty
0 -9 0 10 -191407 -1 -1 3100 1;
#X obj 503 476 bng 23 250 50 0 empty \$0-to_pitch17 empty 17 7 0 10
-99865 -4034 -1;
#X obj 527 476 bng 23 250 50 0 empty \$0-to_pitch18 empty 17 7 0 10
-99865 -4034 -1;
#X obj 551 476 bng 23 250 50 0 empty \$0-to_pitch19 empty 17 7 0 10
-99865 -4034 -1;
#X obj 575 476 bng 23 250 50 0 empty \$0-to_pitch20 empty 17 7 0 10
-99865 -4034 -1;
#X obj 599 476 bng 23 250 50 0 empty \$0-to_pitch21 empty 17 7 0 10
-99865 -4034 -1;
#X obj 623 476 bng 23 250 50 0 empty \$0-to_pitch22 empty 17 7 0 10
-99865 -4034 -1;
#X obj 647 476 bng 23 250 50 0 empty \$0-to_pitch23 empty 17 7 0 10
-99865 -4034 -1;
#X obj 671 476 bng 23 250 50 0 empty \$0-to_pitch24 empty 17 7 0 10
-99865 -4034 -1;
#X obj 695 476 bng 23 250 50 0 empty \$0-to_pitch25 empty 17 7 0 10
-99865 -4034 -1;
#X obj 719 476 bng 23 250 50 0 empty \$0-to_pitch26 empty 17 7 0 10
-99865 -4034 -1;
#X obj 743 476 bng 23 250 50 0 empty \$0-to_pitch27 empty 17 7 0 10
-99865 -4034 -1;
#X obj 767 476 bng 23 250 50 0 empty \$0-to_pitch28 empty 17 7 0 10
-99865 -4034 -1;
#X obj 791 476 bng 23 250 50 0 empty \$0-to_pitch29 empty 17 7 0 10
-99865 -4034 -1;
#X obj 815 476 bng 23 250 50 0 empty \$0-to_pitch30 empty 17 7 0 10
-99865 -4034 -1;
#X obj 839 476 bng 23 250 50 0 empty \$0-to_pitch31 empty 17 7 0 10
-99865 -4034 -1;
#X obj 863 476 bng 23 250 50 0 empty \$0-to_pitch32 empty 17 7 0 10
-99865 -4034 -1;
#X obj 1009 1574 delay 0;
#X obj 141 1646 select 0 1 2 3 4 5 6 7 8 9 10 11 12 13 14 15 16 17
18 19 20 21 22 23 24 25 26 27 28 29 30 31, f 94;
#X obj 141 1671 s \$0-to_pitch01;
#X obj 141 1695 s \$0-to_vel01;
#X obj 141 1719 s \$0-to_gate01;
#X obj 141 1624 % 32;
#X obj 161 1743 s \$0-to_pitch02;
#X obj 161 1767 s \$0-to_vel02;
#X obj 161 1791 s \$0-to_gate02;
#X obj 181 1815 s \$0-to_pitch03;
#X obj 181 1839 s \$0-to_vel03;
#X obj 181 1863 s \$0-to_gate03;
#X obj 202 1887 s \$0-to_pitch04;
#X obj 202 1911 s \$0-to_vel04;
#X obj 202 1935 s \$0-to_gate04;
#X obj 222 1958 s \$0-to_pitch05;
#X obj 222 1982 s \$0-to_vel05;
#X obj 222 2006 s \$0-to_gate05;
#X obj 243 2031 s \$0-to_pitch06;
#X obj 243 2055 s \$0-to_vel06;
#X obj 243 2079 s \$0-to_gate06;
#X obj 263 2102 s \$0-to_pitch07;
#X obj 263 2126 s \$0-to_vel07;
#X obj 263 2150 s \$0-to_gate07;
#X obj 284 2174 s \$0-to_pitch08;
#X obj 284 2198 s \$0-to_vel08;
#X obj 284 2222 s \$0-to_gate08;
#X obj 304 1670 s \$0-to_pitch09;
#X obj 304 1694 s \$0-to_vel09;
#X obj 304 1718 s \$0-to_gate09;
#X obj 324 1742 s \$0-to_pitch10;
#X obj 324 1766 s \$0-to_vel10;
#X obj 324 1790 s \$0-to_gate10;
#X obj 344 1814 s \$0-to_pitch11;
#X obj 344 1838 s \$0-to_vel11;
#X obj 344 1862 s \$0-to_gate11;
#X obj 365 1886 s \$0-to_pitch12;
#X obj 365 1910 s \$0-to_vel12;
#X obj 365 1934 s \$0-to_gate12;
#X obj 385 1957 s \$0-to_pitch13;
#X obj 385 1981 s \$0-to_vel13;
#X obj 385 2005 s \$0-to_gate13;
#X obj 406 2030 s \$0-to_pitch14;
#X obj 406 2054 s \$0-to_vel14;
#X obj 406 2078 s \$0-to_gate14;
#X obj 426 2101 s \$0-to_pitch15;
#X obj 426 2125 s \$0-to_vel15;
#X obj 426 2149 s \$0-to_gate15;
#X obj 447 2173 s \$0-to_pitch16;
#X obj 447 2197 s \$0-to_vel16;
#X obj 447 2221 s \$0-to_gate16;
#X obj 468 1671 s \$0-to_pitch17;
#X obj 468 1695 s \$0-to_vel17;
#X obj 468 1719 s \$0-to_gate17;
#X obj 488 1743 s \$0-to_pitch18;
#X obj 488 1767 s \$0-to_vel18;
#X obj 488 1791 s \$0-to_gate18;
#X obj 508 1815 s \$0-to_pitch19;
#X obj 508 1839 s \$0-to_vel19;
#X obj 508 1863 s \$0-to_gate19;
#X obj 529 1887 s \$0-to_pitch20;
#X obj 529 1911 s \$0-to_vel20;
#X obj 529 1935 s \$0-to_gate20;
#X obj 549 1958 s \$0-to_pitch21;
#X obj 549 1982 s \$0-to_vel21;
#X obj 549 2006 s \$0-to_gate21;
#X obj 570 2031 s \$0-to_pitch22;
#X obj 570 2055 s \$0-to_vel22;
#X obj 570 2079 s \$0-to_gate22;
#X obj 590 2102 s \$0-to_pitch23;
#X obj 590 2126 s \$0-to_vel23;
#X obj 590 2150 s \$0-to_gate23;
#X obj 611 2174 s \$0-to_pitch24;
#X obj 611 2198 s \$0-to_vel24;
#X obj 611 2222 s \$0-to_gate24;
#X obj 631 1670 s \$0-to_pitch25;
#X obj 631 1694 s \$0-to_vel25;
#X obj 631 1718 s \$0-to_gate25;
#X obj 651 1742 s \$0-to_pitch26;
#X obj 651 1766 s \$0-to_vel26;
#X obj 651 1790 s \$0-to_gate26;
#X obj 671 1814 s \$0-to_pitch27;
#X obj 671 1838 s \$0-to_vel27;
#X obj 671 1862 s \$0-to_gate27;
#X obj 692 1886 s \$0-to_pitch28;
#X obj 692 1910 s \$0-to_vel28;
#X obj 692 1934 s \$0-to_gate28;
#X obj 712 1957 s \$0-to_pitch29;
#X obj 712 1981 s \$0-to_vel29;
#X obj 712 2005 s \$0-to_gate29;
#X obj 733 2030 s \$0-to_pitch30;
#X obj 733 2054 s \$0-to_vel30;
#X obj 733 2078 s \$0-to_gate30;
#X obj 753 2101 s \$0-to_pitch31;
#X obj 753 2125 s \$0-to_vel31;
#X obj 753 2149 s \$0-to_gate31;
#X obj 774 2173 s \$0-to_pitch32;
#X obj 774 2197 s \$0-to_vel32;
#X obj 774 2221 s \$0-to_gate32;
#X obj 398 1525 r \$0-from_steps;
#X floatatom 90 56 3 0 0 0 high_note #0-to_high_note #0-from_high_note
, f 3;
#X obj 1188 1856 r \$0-from_low_note;
#X obj 988 1856 r \$0-from_high_note;
#X obj 988 1914 -;
#X obj 949 1953 *;
#X obj 949 1978 +;
#X obj 949 2092 *;
#X obj 949 2046 tabread \$0-freq_mult;
#N canvas 1035 166 689 785 receive_pitch 0;
#X obj 60 764 outlet;
#X obj 60 56 r \$0-from_pitch01;
#X obj 71 78 r \$0-from_pitch02;
#X obj 82 100 r \$0-from_pitch03;
#X obj 93 122 r \$0-from_pitch04;
#X obj 106 144 r \$0-from_pitch05;
#X obj 117 166 r \$0-from_pitch06;
#X obj 128 188 r \$0-from_pitch07;
#X obj 140 210 r \$0-from_pitch08;
#X obj 152 234 r \$0-from_pitch09;
#X obj 162 256 r \$0-from_pitch10;
#X obj 173 278 r \$0-from_pitch11;
#X obj 184 300 r \$0-from_pitch12;
#X obj 197 322 r \$0-from_pitch13;
#X obj 208 344 r \$0-from_pitch14;
#X obj 219 366 r \$0-from_pitch15;
#X obj 231 387 r \$0-from_pitch16;
#X obj 241 410 r \$0-from_pitch17;
#X obj 252 432 r \$0-from_pitch18;
#X obj 263 454 r \$0-from_pitch19;
#X obj 275 476 r \$0-from_pitch20;
#X obj 287 498 r \$0-from_pitch21;
#X obj 298 520 r \$0-from_pitch22;
#X obj 309 542 r \$0-from_pitch23;
#X obj 321 564 r \$0-from_pitch24;
#X obj 333 588 r \$0-from_pitch25;
#X obj 343 610 r \$0-from_pitch26;
#X obj 354 632 r \$0-from_pitch27;
#X obj 365 654 r \$0-from_pitch28;
#X obj 378 676 r \$0-from_pitch29;
#X obj 389 698 r \$0-from_pitch30;
#X obj 400 720 r \$0-from_pitch31;
#X obj 412 741 r \$0-from_pitch32;
#X connect 1 0 0 0;
#X connect 2 0 0 0;
#X connect 3 0 0 0;
#X connect 4 0 0 0;
#X connect 5 0 0 0;
#X connect 6 0 0 0;
#X connect 7 0 0 0;
#X connect 8 0 0 0;
#X connect 9 0 0 0;
#X connect 10 0 0 0;
#X connect 11 0 0 0;
#X connect 12 0 0 0;
#X connect 13 0 0 0;
#X connect 14 0 0 0;
#X connect 15 0 0 0;
#X connect 16 0 0 0;
#X connect 17 0 0 0;
#X connect 18 0 0 0;
#X connect 19 0 0 0;
#X connect 20 0 0 0;
#X connect 21 0 0 0;
#X connect 22 0 0 0;
#X connect 23 0 0 0;
#X connect 24 0 0 0;
#X connect 25 0 0 0;
#X connect 26 0 0 0;
#X connect 27 0 0 0;
#X connect 28 0 0 0;
#X connect 29 0 0 0;
#X connect 30 0 0 0;
#X connect 31 0 0 0;
#X connect 32 0 0 0;
#X restore 968 1799 pd receive_pitch;
#X obj 949 2000 i;
#N canvas 95 494 626 300 display_note_number 0;
#X floatatom 100 100 3 0 0 0 - - -, f 3;
#X obj 398 19 r \$0-from_low_note;
#X obj 198 19 r \$0-from_high_note;
#X obj 198 77 -;
#X obj 159 116 *;
#X obj 159 141 +;
#X obj 209 55 bng 15 250 50 0 empty empty empty 17 7 0 10 -262144 -1
-1;
#X obj 159 163 i;
#X obj 145 20 inlet;
#X connect 1 0 3 1;
#X connect 1 0 5 1;
#X connect 1 0 6 0;
#X connect 2 0 3 0;
#X connect 3 0 4 1;
#X connect 4 0 5 0;
#X connect 5 0 7 0;
#X connect 6 0 3 0;
#X connect 7 0 0 0;
#X connect 8 0 4 0;
#X coords 0 -1 1 1 23 14 2 100 100;
#X restore 143 318 pd display_note_number;
#N canvas 95 494 626 300 display_note_number 0;
#X floatatom 100 100 3 0 0 0 - - -, f 3;
#X obj 398 19 r \$0-from_low_note;
#X obj 198 19 r \$0-from_high_note;
#X obj 198 77 -;
#X obj 159 116 *;
#X obj 159 141 +;
#X obj 209 55 bng 15 250 50 0 empty empty empty 17 7 0 10 -262144 -1
-1;
#X obj 159 163 i;
#X obj 145 20 inlet;
#X connect 1 0 3 1;
#X connect 1 0 5 1;
#X connect 1 0 6 0;
#X connect 2 0 3 0;
#X connect 3 0 4 1;
#X connect 4 0 5 0;
#X connect 5 0 7 0;
#X connect 6 0 3 0;
#X connect 7 0 0 0;
#X connect 8 0 4 0;
#X coords 0 -1 1 1 23 14 2 100 100;
#X restore 167 318 pd display_note_number;
#N canvas 95 494 626 300 display_note_number 0;
#X floatatom 100 100 3 0 0 0 - - -, f 3;
#X obj 398 19 r \$0-from_low_note;
#X obj 198 19 r \$0-from_high_note;
#X obj 198 77 -;
#X obj 159 116 *;
#X obj 159 141 +;
#X obj 209 55 bng 15 250 50 0 empty empty empty 17 7 0 10 -262144 -1
-1;
#X obj 159 163 i;
#X obj 145 20 inlet;
#X connect 1 0 3 1;
#X connect 1 0 5 1;
#X connect 1 0 6 0;
#X connect 2 0 3 0;
#X connect 3 0 4 1;
#X connect 4 0 5 0;
#X connect 5 0 7 0;
#X connect 6 0 3 0;
#X connect 7 0 0 0;
#X connect 8 0 4 0;
#X coords 0 -1 1 1 23 14 2 100 100;
#X restore 191 318 pd display_note_number;
#N canvas 95 494 626 300 display_note_number 0;
#X floatatom 100 100 3 0 0 0 - - -, f 3;
#X obj 398 19 r \$0-from_low_note;
#X obj 198 19 r \$0-from_high_note;
#X obj 198 77 -;
#X obj 159 116 *;
#X obj 159 141 +;
#X obj 209 55 bng 15 250 50 0 empty empty empty 17 7 0 10 -262144 -1
-1;
#X obj 159 163 i;
#X obj 145 20 inlet;
#X connect 1 0 3 1;
#X connect 1 0 5 1;
#X connect 1 0 6 0;
#X connect 2 0 3 0;
#X connect 3 0 4 1;
#X connect 4 0 5 0;
#X connect 5 0 7 0;
#X connect 6 0 3 0;
#X connect 7 0 0 0;
#X connect 8 0 4 0;
#X coords 0 -1 1 1 23 14 2 100 100;
#X restore 215 318 pd display_note_number;
#N canvas 95 494 626 300 display_note_number 0;
#X floatatom 100 100 3 0 0 0 - - -, f 3;
#X obj 398 19 r \$0-from_low_note;
#X obj 198 19 r \$0-from_high_note;
#X obj 198 77 -;
#X obj 159 116 *;
#X obj 159 141 +;
#X obj 209 55 bng 15 250 50 0 empty empty empty 17 7 0 10 -262144 -1
-1;
#X obj 159 163 i;
#X obj 145 20 inlet;
#X connect 1 0 3 1;
#X connect 1 0 5 1;
#X connect 1 0 6 0;
#X connect 2 0 3 0;
#X connect 3 0 4 1;
#X connect 4 0 5 0;
#X connect 5 0 7 0;
#X connect 6 0 3 0;
#X connect 7 0 0 0;
#X connect 8 0 4 0;
#X coords 0 -1 1 1 23 14 2 100 100;
#X restore 239 318 pd display_note_number;
#N canvas 95 494 626 300 display_note_number 0;
#X floatatom 100 100 3 0 0 0 - - -, f 3;
#X obj 398 19 r \$0-from_low_note;
#X obj 198 19 r \$0-from_high_note;
#X obj 198 77 -;
#X obj 159 116 *;
#X obj 159 141 +;
#X obj 209 55 bng 15 250 50 0 empty empty empty 17 7 0 10 -262144 -1
-1;
#X obj 159 163 i;
#X obj 145 20 inlet;
#X connect 1 0 3 1;
#X connect 1 0 5 1;
#X connect 1 0 6 0;
#X connect 2 0 3 0;
#X connect 3 0 4 1;
#X connect 4 0 5 0;
#X connect 5 0 7 0;
#X connect 6 0 3 0;
#X connect 7 0 0 0;
#X connect 8 0 4 0;
#X coords 0 -1 1 1 23 14 2 100 100;
#X restore 263 318 pd display_note_number;
#N canvas 95 494 626 300 display_note_number 0;
#X floatatom 100 100 3 0 0 0 - - -, f 3;
#X obj 398 19 r \$0-from_low_note;
#X obj 198 19 r \$0-from_high_note;
#X obj 198 77 -;
#X obj 159 116 *;
#X obj 159 141 +;
#X obj 209 55 bng 15 250 50 0 empty empty empty 17 7 0 10 -262144 -1
-1;
#X obj 159 163 i;
#X obj 145 20 inlet;
#X connect 1 0 3 1;
#X connect 1 0 5 1;
#X connect 1 0 6 0;
#X connect 2 0 3 0;
#X connect 3 0 4 1;
#X connect 4 0 5 0;
#X connect 5 0 7 0;
#X connect 6 0 3 0;
#X connect 7 0 0 0;
#X connect 8 0 4 0;
#X coords 0 -1 1 1 23 14 2 100 100;
#X restore 287 318 pd display_note_number;
#N canvas 95 494 626 300 display_note_number 0;
#X floatatom 100 100 3 0 0 0 - - -, f 3;
#X obj 398 19 r \$0-from_low_note;
#X obj 198 19 r \$0-from_high_note;
#X obj 198 77 -;
#X obj 159 116 *;
#X obj 159 141 +;
#X obj 209 55 bng 15 250 50 0 empty empty empty 17 7 0 10 -262144 -1
-1;
#X obj 159 163 i;
#X obj 145 20 inlet;
#X connect 1 0 3 1;
#X connect 1 0 5 1;
#X connect 1 0 6 0;
#X connect 2 0 3 0;
#X connect 3 0 4 1;
#X connect 4 0 5 0;
#X connect 5 0 7 0;
#X connect 6 0 3 0;
#X connect 7 0 0 0;
#X connect 8 0 4 0;
#X coords 0 -1 1 1 23 14 2 100 100;
#X restore 311 318 pd display_note_number;
#N canvas 95 494 626 300 display_note_number 0;
#X floatatom 100 100 3 0 0 0 - - -, f 3;
#X obj 398 19 r \$0-from_low_note;
#X obj 198 19 r \$0-from_high_note;
#X obj 198 77 -;
#X obj 159 116 *;
#X obj 159 141 +;
#X obj 209 55 bng 15 250 50 0 empty empty empty 17 7 0 10 -262144 -1
-1;
#X obj 159 163 i;
#X obj 145 20 inlet;
#X connect 1 0 3 1;
#X connect 1 0 5 1;
#X connect 1 0 6 0;
#X connect 2 0 3 0;
#X connect 3 0 4 1;
#X connect 4 0 5 0;
#X connect 5 0 7 0;
#X connect 6 0 3 0;
#X connect 7 0 0 0;
#X connect 8 0 4 0;
#X coords 0 -1 1 1 23 14 2 100 100;
#X restore 335 318 pd display_note_number;
#N canvas 95 494 626 300 display_note_number 0;
#X floatatom 100 100 3 0 0 0 - - -, f 3;
#X obj 398 19 r \$0-from_low_note;
#X obj 198 19 r \$0-from_high_note;
#X obj 198 77 -;
#X obj 159 116 *;
#X obj 159 141 +;
#X obj 209 55 bng 15 250 50 0 empty empty empty 17 7 0 10 -262144 -1
-1;
#X obj 159 163 i;
#X obj 145 20 inlet;
#X connect 1 0 3 1;
#X connect 1 0 5 1;
#X connect 1 0 6 0;
#X connect 2 0 3 0;
#X connect 3 0 4 1;
#X connect 4 0 5 0;
#X connect 5 0 7 0;
#X connect 6 0 3 0;
#X connect 7 0 0 0;
#X connect 8 0 4 0;
#X coords 0 -1 1 1 23 14 2 100 100;
#X restore 359 318 pd display_note_number;
#N canvas 95 494 626 300 display_note_number 0;
#X floatatom 100 100 3 0 0 0 - - -, f 3;
#X obj 398 19 r \$0-from_low_note;
#X obj 198 19 r \$0-from_high_note;
#X obj 198 77 -;
#X obj 159 116 *;
#X obj 159 141 +;
#X obj 209 55 bng 15 250 50 0 empty empty empty 17 7 0 10 -262144 -1
-1;
#X obj 159 163 i;
#X obj 145 20 inlet;
#X connect 1 0 3 1;
#X connect 1 0 5 1;
#X connect 1 0 6 0;
#X connect 2 0 3 0;
#X connect 3 0 4 1;
#X connect 4 0 5 0;
#X connect 5 0 7 0;
#X connect 6 0 3 0;
#X connect 7 0 0 0;
#X connect 8 0 4 0;
#X coords 0 -1 1 1 23 14 2 100 100;
#X restore 383 318 pd display_note_number;
#N canvas 95 494 626 300 display_note_number 0;
#X floatatom 100 100 3 0 0 0 - - -, f 3;
#X obj 398 19 r \$0-from_low_note;
#X obj 198 19 r \$0-from_high_note;
#X obj 198 77 -;
#X obj 159 116 *;
#X obj 159 141 +;
#X obj 209 55 bng 15 250 50 0 empty empty empty 17 7 0 10 -262144 -1
-1;
#X obj 159 163 i;
#X obj 145 20 inlet;
#X connect 1 0 3 1;
#X connect 1 0 5 1;
#X connect 1 0 6 0;
#X connect 2 0 3 0;
#X connect 3 0 4 1;
#X connect 4 0 5 0;
#X connect 5 0 7 0;
#X connect 6 0 3 0;
#X connect 7 0 0 0;
#X connect 8 0 4 0;
#X coords 0 -1 1 1 23 14 2 100 100;
#X restore 407 318 pd display_note_number;
#N canvas 95 494 626 300 display_note_number 0;
#X floatatom 100 100 3 0 0 0 - - -, f 3;
#X obj 398 19 r \$0-from_low_note;
#X obj 198 19 r \$0-from_high_note;
#X obj 198 77 -;
#X obj 159 116 *;
#X obj 159 141 +;
#X obj 209 55 bng 15 250 50 0 empty empty empty 17 7 0 10 -262144 -1
-1;
#X obj 159 163 i;
#X obj 145 20 inlet;
#X connect 1 0 3 1;
#X connect 1 0 5 1;
#X connect 1 0 6 0;
#X connect 2 0 3 0;
#X connect 3 0 4 1;
#X connect 4 0 5 0;
#X connect 5 0 7 0;
#X connect 6 0 3 0;
#X connect 7 0 0 0;
#X connect 8 0 4 0;
#X coords 0 -1 1 1 23 14 2 100 100;
#X restore 431 318 pd display_note_number;
#N canvas 95 494 626 300 display_note_number 0;
#X floatatom 100 100 3 0 0 0 - - -, f 3;
#X obj 398 19 r \$0-from_low_note;
#X obj 198 19 r \$0-from_high_note;
#X obj 198 77 -;
#X obj 159 116 *;
#X obj 159 141 +;
#X obj 209 55 bng 15 250 50 0 empty empty empty 17 7 0 10 -262144 -1
-1;
#X obj 159 163 i;
#X obj 145 20 inlet;
#X connect 1 0 3 1;
#X connect 1 0 5 1;
#X connect 1 0 6 0;
#X connect 2 0 3 0;
#X connect 3 0 4 1;
#X connect 4 0 5 0;
#X connect 5 0 7 0;
#X connect 6 0 3 0;
#X connect 7 0 0 0;
#X connect 8 0 4 0;
#X coords 0 -1 1 1 23 14 2 100 100;
#X restore 455 318 pd display_note_number;
#N canvas 95 494 626 300 display_note_number 0;
#X floatatom 100 100 3 0 0 0 - - -, f 3;
#X obj 398 19 r \$0-from_low_note;
#X obj 198 19 r \$0-from_high_note;
#X obj 198 77 -;
#X obj 159 116 *;
#X obj 159 141 +;
#X obj 209 55 bng 15 250 50 0 empty empty empty 17 7 0 10 -262144 -1
-1;
#X obj 159 163 i;
#X obj 145 20 inlet;
#X connect 1 0 3 1;
#X connect 1 0 5 1;
#X connect 1 0 6 0;
#X connect 2 0 3 0;
#X connect 3 0 4 1;
#X connect 4 0 5 0;
#X connect 5 0 7 0;
#X connect 6 0 3 0;
#X connect 7 0 0 0;
#X connect 8 0 4 0;
#X coords 0 -1 1 1 23 14 2 100 100;
#X restore 479 318 pd display_note_number;
#N canvas 95 494 626 300 display_note_number 0;
#X floatatom 100 100 3 0 0 0 - - -, f 3;
#X obj 398 19 r \$0-from_low_note;
#X obj 198 19 r \$0-from_high_note;
#X obj 198 77 -;
#X obj 159 116 *;
#X obj 159 141 +;
#X obj 209 55 bng 15 250 50 0 empty empty empty 17 7 0 10 -262144 -1
-1;
#X obj 159 163 i;
#X obj 145 20 inlet;
#X connect 1 0 3 1;
#X connect 1 0 5 1;
#X connect 1 0 6 0;
#X connect 2 0 3 0;
#X connect 3 0 4 1;
#X connect 4 0 5 0;
#X connect 5 0 7 0;
#X connect 6 0 3 0;
#X connect 7 0 0 0;
#X connect 8 0 4 0;
#X coords 0 -1 1 1 23 14 2 100 100;
#X restore 503 318 pd display_note_number;
#N canvas 95 494 626 300 display_note_number 0;
#X floatatom 100 100 3 0 0 0 - - -, f 3;
#X obj 398 19 r \$0-from_low_note;
#X obj 198 19 r \$0-from_high_note;
#X obj 198 77 -;
#X obj 159 116 *;
#X obj 159 141 +;
#X obj 209 55 bng 15 250 50 0 empty empty empty 17 7 0 10 -262144 -1
-1;
#X obj 159 163 i;
#X obj 145 20 inlet;
#X connect 1 0 3 1;
#X connect 1 0 5 1;
#X connect 1 0 6 0;
#X connect 2 0 3 0;
#X connect 3 0 4 1;
#X connect 4 0 5 0;
#X connect 5 0 7 0;
#X connect 6 0 3 0;
#X connect 7 0 0 0;
#X connect 8 0 4 0;
#X coords 0 -1 1 1 23 14 2 100 100;
#X restore 527 318 pd display_note_number;
#N canvas 95 494 626 300 display_note_number 0;
#X floatatom 100 100 3 0 0 0 - - -, f 3;
#X obj 398 19 r \$0-from_low_note;
#X obj 198 19 r \$0-from_high_note;
#X obj 198 77 -;
#X obj 159 116 *;
#X obj 159 141 +;
#X obj 209 55 bng 15 250 50 0 empty empty empty 17 7 0 10 -262144 -1
-1;
#X obj 159 163 i;
#X obj 145 20 inlet;
#X connect 1 0 3 1;
#X connect 1 0 5 1;
#X connect 1 0 6 0;
#X connect 2 0 3 0;
#X connect 3 0 4 1;
#X connect 4 0 5 0;
#X connect 5 0 7 0;
#X connect 6 0 3 0;
#X connect 7 0 0 0;
#X connect 8 0 4 0;
#X coords 0 -1 1 1 23 14 2 100 100;
#X restore 551 318 pd display_note_number;
#N canvas 95 494 626 300 display_note_number 0;
#X floatatom 100 100 3 0 0 0 - - -, f 3;
#X obj 398 19 r \$0-from_low_note;
#X obj 198 19 r \$0-from_high_note;
#X obj 198 77 -;
#X obj 159 116 *;
#X obj 159 141 +;
#X obj 209 55 bng 15 250 50 0 empty empty empty 17 7 0 10 -262144 -1
-1;
#X obj 159 163 i;
#X obj 145 20 inlet;
#X connect 1 0 3 1;
#X connect 1 0 5 1;
#X connect 1 0 6 0;
#X connect 2 0 3 0;
#X connect 3 0 4 1;
#X connect 4 0 5 0;
#X connect 5 0 7 0;
#X connect 6 0 3 0;
#X connect 7 0 0 0;
#X connect 8 0 4 0;
#X coords 0 -1 1 1 23 14 2 100 100;
#X restore 575 318 pd display_note_number;
#N canvas 95 494 626 300 display_note_number 0;
#X floatatom 100 100 3 0 0 0 - - -, f 3;
#X obj 398 19 r \$0-from_low_note;
#X obj 198 19 r \$0-from_high_note;
#X obj 198 77 -;
#X obj 159 116 *;
#X obj 159 141 +;
#X obj 209 55 bng 15 250 50 0 empty empty empty 17 7 0 10 -262144 -1
-1;
#X obj 159 163 i;
#X obj 145 20 inlet;
#X connect 1 0 3 1;
#X connect 1 0 5 1;
#X connect 1 0 6 0;
#X connect 2 0 3 0;
#X connect 3 0 4 1;
#X connect 4 0 5 0;
#X connect 5 0 7 0;
#X connect 6 0 3 0;
#X connect 7 0 0 0;
#X connect 8 0 4 0;
#X coords 0 -1 1 1 23 14 2 100 100;
#X restore 599 318 pd display_note_number;
#N canvas 95 494 626 300 display_note_number 0;
#X floatatom 100 100 3 0 0 0 - - -, f 3;
#X obj 398 19 r \$0-from_low_note;
#X obj 198 19 r \$0-from_high_note;
#X obj 198 77 -;
#X obj 159 116 *;
#X obj 159 141 +;
#X obj 209 55 bng 15 250 50 0 empty empty empty 17 7 0 10 -262144 -1
-1;
#X obj 159 163 i;
#X obj 145 20 inlet;
#X connect 1 0 3 1;
#X connect 1 0 5 1;
#X connect 1 0 6 0;
#X connect 2 0 3 0;
#X connect 3 0 4 1;
#X connect 4 0 5 0;
#X connect 5 0 7 0;
#X connect 6 0 3 0;
#X connect 7 0 0 0;
#X connect 8 0 4 0;
#X coords 0 -1 1 1 23 14 2 100 100;
#X restore 623 318 pd display_note_number;
#N canvas 95 494 626 300 display_note_number 0;
#X floatatom 100 100 3 0 0 0 - - -, f 3;
#X obj 398 19 r \$0-from_low_note;
#X obj 198 19 r \$0-from_high_note;
#X obj 198 77 -;
#X obj 159 116 *;
#X obj 159 141 +;
#X obj 209 55 bng 15 250 50 0 empty empty empty 17 7 0 10 -262144 -1
-1;
#X obj 159 163 i;
#X obj 145 20 inlet;
#X connect 1 0 3 1;
#X connect 1 0 5 1;
#X connect 1 0 6 0;
#X connect 2 0 3 0;
#X connect 3 0 4 1;
#X connect 4 0 5 0;
#X connect 5 0 7 0;
#X connect 6 0 3 0;
#X connect 7 0 0 0;
#X connect 8 0 4 0;
#X coords 0 -1 1 1 23 14 2 100 100;
#X restore 647 318 pd display_note_number;
#N canvas 95 494 626 300 display_note_number 0;
#X floatatom 100 100 3 0 0 0 - - -, f 3;
#X obj 398 19 r \$0-from_low_note;
#X obj 198 19 r \$0-from_high_note;
#X obj 198 77 -;
#X obj 159 116 *;
#X obj 159 141 +;
#X obj 209 55 bng 15 250 50 0 empty empty empty 17 7 0 10 -262144 -1
-1;
#X obj 159 163 i;
#X obj 145 20 inlet;
#X connect 1 0 3 1;
#X connect 1 0 5 1;
#X connect 1 0 6 0;
#X connect 2 0 3 0;
#X connect 3 0 4 1;
#X connect 4 0 5 0;
#X connect 5 0 7 0;
#X connect 6 0 3 0;
#X connect 7 0 0 0;
#X connect 8 0 4 0;
#X coords 0 -1 1 1 23 14 2 100 100;
#X restore 671 318 pd display_note_number;
#N canvas 95 494 626 300 display_note_number 0;
#X floatatom 100 100 3 0 0 0 - - -, f 3;
#X obj 398 19 r \$0-from_low_note;
#X obj 198 19 r \$0-from_high_note;
#X obj 198 77 -;
#X obj 159 116 *;
#X obj 159 141 +;
#X obj 209 55 bng 15 250 50 0 empty empty empty 17 7 0 10 -262144 -1
-1;
#X obj 159 163 i;
#X obj 145 20 inlet;
#X connect 1 0 3 1;
#X connect 1 0 5 1;
#X connect 1 0 6 0;
#X connect 2 0 3 0;
#X connect 3 0 4 1;
#X connect 4 0 5 0;
#X connect 5 0 7 0;
#X connect 6 0 3 0;
#X connect 7 0 0 0;
#X connect 8 0 4 0;
#X coords 0 -1 1 1 23 14 2 100 100;
#X restore 695 318 pd display_note_number;
#N canvas 95 494 626 300 display_note_number 0;
#X floatatom 100 100 3 0 0 0 - - -, f 3;
#X obj 398 19 r \$0-from_low_note;
#X obj 198 19 r \$0-from_high_note;
#X obj 198 77 -;
#X obj 159 116 *;
#X obj 159 141 +;
#X obj 209 55 bng 15 250 50 0 empty empty empty 17 7 0 10 -262144 -1
-1;
#X obj 159 163 i;
#X obj 145 20 inlet;
#X connect 1 0 3 1;
#X connect 1 0 5 1;
#X connect 1 0 6 0;
#X connect 2 0 3 0;
#X connect 3 0 4 1;
#X connect 4 0 5 0;
#X connect 5 0 7 0;
#X connect 6 0 3 0;
#X connect 7 0 0 0;
#X connect 8 0 4 0;
#X coords 0 -1 1 1 23 14 2 100 100;
#X restore 719 318 pd display_note_number;
#N canvas 95 494 626 300 display_note_number 0;
#X floatatom 100 100 3 0 0 0 - - -, f 3;
#X obj 398 19 r \$0-from_low_note;
#X obj 198 19 r \$0-from_high_note;
#X obj 198 77 -;
#X obj 159 116 *;
#X obj 159 141 +;
#X obj 209 55 bng 15 250 50 0 empty empty empty 17 7 0 10 -262144 -1
-1;
#X obj 159 163 i;
#X obj 145 20 inlet;
#X connect 1 0 3 1;
#X connect 1 0 5 1;
#X connect 1 0 6 0;
#X connect 2 0 3 0;
#X connect 3 0 4 1;
#X connect 4 0 5 0;
#X connect 5 0 7 0;
#X connect 6 0 3 0;
#X connect 7 0 0 0;
#X connect 8 0 4 0;
#X coords 0 -1 1 1 23 14 2 100 100;
#X restore 743 318 pd display_note_number;
#N canvas 95 494 626 300 display_note_number 0;
#X floatatom 100 100 3 0 0 0 - - -, f 3;
#X obj 398 19 r \$0-from_low_note;
#X obj 198 19 r \$0-from_high_note;
#X obj 198 77 -;
#X obj 159 116 *;
#X obj 159 141 +;
#X obj 209 55 bng 15 250 50 0 empty empty empty 17 7 0 10 -262144 -1
-1;
#X obj 159 163 i;
#X obj 145 20 inlet;
#X connect 1 0 3 1;
#X connect 1 0 5 1;
#X connect 1 0 6 0;
#X connect 2 0 3 0;
#X connect 3 0 4 1;
#X connect 4 0 5 0;
#X connect 5 0 7 0;
#X connect 6 0 3 0;
#X connect 7 0 0 0;
#X connect 8 0 4 0;
#X coords 0 -1 1 1 23 14 2 100 100;
#X restore 767 318 pd display_note_number;
#N canvas 95 494 626 300 display_note_number 0;
#X floatatom 100 100 3 0 0 0 - - -, f 3;
#X obj 398 19 r \$0-from_low_note;
#X obj 198 19 r \$0-from_high_note;
#X obj 198 77 -;
#X obj 159 116 *;
#X obj 159 141 +;
#X obj 209 55 bng 15 250 50 0 empty empty empty 17 7 0 10 -262144 -1
-1;
#X obj 159 163 i;
#X obj 145 20 inlet;
#X connect 1 0 3 1;
#X connect 1 0 5 1;
#X connect 1 0 6 0;
#X connect 2 0 3 0;
#X connect 3 0 4 1;
#X connect 4 0 5 0;
#X connect 5 0 7 0;
#X connect 6 0 3 0;
#X connect 7 0 0 0;
#X connect 8 0 4 0;
#X coords 0 -1 1 1 23 14 2 100 100;
#X restore 791 318 pd display_note_number;
#N canvas 95 494 626 300 display_note_number 0;
#X floatatom 100 100 3 0 0 0 - - -, f 3;
#X obj 398 19 r \$0-from_low_note;
#X obj 198 19 r \$0-from_high_note;
#X obj 198 77 -;
#X obj 159 116 *;
#X obj 159 141 +;
#X obj 209 55 bng 15 250 50 0 empty empty empty 17 7 0 10 -262144 -1
-1;
#X obj 159 163 i;
#X obj 145 20 inlet;
#X connect 1 0 3 1;
#X connect 1 0 5 1;
#X connect 1 0 6 0;
#X connect 2 0 3 0;
#X connect 3 0 4 1;
#X connect 4 0 5 0;
#X connect 5 0 7 0;
#X connect 6 0 3 0;
#X connect 7 0 0 0;
#X connect 8 0 4 0;
#X coords 0 -1 1 1 23 14 2 100 100;
#X restore 815 318 pd display_note_number;
#N canvas 95 494 626 300 display_note_number 0;
#X floatatom 100 100 3 0 0 0 - - -, f 3;
#X obj 398 19 r \$0-from_low_note;
#X obj 198 19 r \$0-from_high_note;
#X obj 198 77 -;
#X obj 159 116 *;
#X obj 159 141 +;
#X obj 209 55 bng 15 250 50 0 empty empty empty 17 7 0 10 -262144 -1
-1;
#X obj 159 163 i;
#X obj 145 20 inlet;
#X connect 1 0 3 1;
#X connect 1 0 5 1;
#X connect 1 0 6 0;
#X connect 2 0 3 0;
#X connect 3 0 4 1;
#X connect 4 0 5 0;
#X connect 5 0 7 0;
#X connect 6 0 3 0;
#X connect 7 0 0 0;
#X connect 8 0 4 0;
#X coords 0 -1 1 1 23 14 2 100 100;
#X restore 839 318 pd display_note_number;
#N canvas 95 494 626 300 display_note_number 0;
#X floatatom 100 100 3 0 0 0 - - -, f 3;
#X obj 398 19 r \$0-from_low_note;
#X obj 198 19 r \$0-from_high_note;
#X obj 198 77 -;
#X obj 159 116 *;
#X obj 159 141 +;
#X obj 209 55 bng 15 250 50 0 empty empty empty 17 7 0 10 -262144 -1
-1;
#X obj 159 163 i;
#X obj 145 20 inlet;
#X connect 1 0 3 1;
#X connect 1 0 5 1;
#X connect 1 0 6 0;
#X connect 2 0 3 0;
#X connect 3 0 4 1;
#X connect 4 0 5 0;
#X connect 5 0 7 0;
#X connect 6 0 3 0;
#X connect 7 0 0 0;
#X connect 8 0 4 0;
#X coords 0 -1 1 1 23 14 2 100 100;
#X restore 863 318 pd display_note_number;
#X obj 1104 2047 r \$0-from_base_frequency;
#X obj 1023 1884 t b f;
#N canvas 0 50 676 799 receive_velocity 0;
#X obj 60 764 outlet;
#X obj 60 56 r \$0-from_vel01;
#X obj 71 78 r \$0-from_vel02;
#X obj 82 100 r \$0-from_vel03;
#X obj 93 122 r \$0-from_vel04;
#X obj 106 144 r \$0-from_vel05;
#X obj 117 166 r \$0-from_vel06;
#X obj 128 188 r \$0-from_vel07;
#X obj 140 210 r \$0-from_vel08;
#X obj 152 234 r \$0-from_vel09;
#X obj 162 256 r \$0-from_vel10;
#X obj 173 278 r \$0-from_vel11;
#X obj 184 300 r \$0-from_vel12;
#X obj 197 322 r \$0-from_vel13;
#X obj 208 344 r \$0-from_vel14;
#X obj 219 366 r \$0-from_vel15;
#X obj 231 387 r \$0-from_vel16;
#X obj 241 410 r \$0-from_vel17;
#X obj 252 432 r \$0-from_vel18;
#X obj 263 454 r \$0-from_vel19;
#X obj 275 476 r \$0-from_vel20;
#X obj 287 498 r \$0-from_vel21;
#X obj 298 520 r \$0-from_vel22;
#X obj 309 542 r \$0-from_vel23;
#X obj 321 564 r \$0-from_vel24;
#X obj 333 588 r \$0-from_vel25;
#X obj 343 610 r \$0-from_vel26;
#X obj 354 632 r \$0-from_vel27;
#X obj 365 654 r \$0-from_vel28;
#X obj 378 676 r \$0-from_vel29;
#X obj 389 698 r \$0-from_vel30;
#X obj 400 720 r \$0-from_vel31;
#X obj 412 741 r \$0-from_vel32;
#X connect 1 0 0 0;
#X connect 2 0 0 0;
#X connect 3 0 0 0;
#X connect 4 0 0 0;
#X connect 5 0 0 0;
#X connect 6 0 0 0;
#X connect 7 0 0 0;
#X connect 8 0 0 0;
#X connect 9 0 0 0;
#X connect 10 0 0 0;
#X connect 11 0 0 0;
#X connect 12 0 0 0;
#X connect 13 0 0 0;
#X connect 14 0 0 0;
#X connect 15 0 0 0;
#X connect 16 0 0 0;
#X connect 17 0 0 0;
#X connect 18 0 0 0;
#X connect 19 0 0 0;
#X connect 20 0 0 0;
#X connect 21 0 0 0;
#X connect 22 0 0 0;
#X connect 23 0 0 0;
#X connect 24 0 0 0;
#X connect 25 0 0 0;
#X connect 26 0 0 0;
#X connect 27 0 0 0;
#X connect 28 0 0 0;
#X connect 29 0 0 0;
#X connect 30 0 0 0;
#X connect 31 0 0 0;
#X connect 32 0 0 0;
#X restore 1432 2026 pd receive_velocity;
#X text 1072 1572 necessary so pitch and velocity update first;
#X obj 315 1045 metro;
#X obj 347 946 /;
#X obj 479 875 r \$0-from_beats;
#X obj 315 1067 delay 0;
#X obj 477 996 *;
#X obj 477 946 r \$0-from_delay;
#X obj 477 1025 s \$0-ms_per_beat;
#X obj 479 901 t b f;
#X obj 477 968 t b f;
#X obj 103 1131 f 0;
#X obj 70 1131 + 1;
#X obj 103 1180 < 32;
#X obj 138 1132 r \$0-from_beats;
#X obj 138 1154 t b f;
#X obj 315 1234 spigot;
#X msg 121 1083 0;
#X obj 949 2121 outlet frequency;
#X obj 109 816 inlet one_bang_per_measure;
#X obj 310 816 inlet ms_per_measure;
#X obj 579 554 bng 15 250 50 0 \$0-from_reset \$0-to_reset reset_step
17 7 0 11 -262144 -1 -1;
#X obj 219 1525 r \$0-from_reset;
#X floatatom 900 1887 5 0 0 0 - - -, f 5;
#X obj 1415 2071 f;
#N canvas 0 50 1858 1037 receive_gate 0;
#X obj 60 764 outlet;
#X obj 60 56 r \$0-from_gate01;
#X obj 71 78 r \$0-from_gate02;
#X obj 82 100 r \$0-from_gate03;
#X obj 93 122 r \$0-from_gate04;
#X obj 106 144 r \$0-from_gate05;
#X obj 117 166 r \$0-from_gate06;
#X obj 128 188 r \$0-from_gate07;
#X obj 140 210 r \$0-from_gate08;
#X obj 152 234 r \$0-from_gate09;
#X obj 162 256 r \$0-from_gate10;
#X obj 173 278 r \$0-from_gate11;
#X obj 184 300 r \$0-from_gate12;
#X obj 197 322 r \$0-from_gate13;
#X obj 208 344 r \$0-from_gate14;
#X obj 219 366 r \$0-from_gate15;
#X obj 231 387 r \$0-from_gate16;
#X obj 241 410 r \$0-from_gate17;
#X obj 252 432 r \$0-from_gate18;
#X obj 263 454 r \$0-from_gate19;
#X obj 275 476 r \$0-from_gate20;
#X obj 287 498 r \$0-from_gate21;
#X obj 298 520 r \$0-from_gate22;
#X obj 309 542 r \$0-from_gate23;
#X obj 321 564 r \$0-from_gate24;
#X obj 333 588 r \$0-from_gate25;
#X obj 343 610 r \$0-from_gate26;
#X obj 354 632 r \$0-from_gate27;
#X obj 365 654 r \$0-from_gate28;
#X obj 378 676 r \$0-from_gate29;
#X obj 389 698 r \$0-from_gate30;
#X obj 400 720 r \$0-from_gate31;
#X obj 412 741 r \$0-from_gate32;
#X connect 1 0 0 0;
#X connect 2 0 0 0;
#X connect 3 0 0 0;
#X connect 4 0 0 0;
#X connect 5 0 0 0;
#X connect 6 0 0 0;
#X connect 7 0 0 0;
#X connect 8 0 0 0;
#X connect 9 0 0 0;
#X connect 10 0 0 0;
#X connect 11 0 0 0;
#X connect 12 0 0 0;
#X connect 13 0 0 0;
#X connect 14 0 0 0;
#X connect 15 0 0 0;
#X connect 16 0 0 0;
#X connect 17 0 0 0;
#X connect 18 0 0 0;
#X connect 19 0 0 0;
#X connect 20 0 0 0;
#X connect 21 0 0 0;
#X connect 22 0 0 0;
#X connect 23 0 0 0;
#X connect 24 0 0 0;
#X connect 25 0 0 0;
#X connect 26 0 0 0;
#X connect 27 0 0 0;
#X connect 28 0 0 0;
#X connect 29 0 0 0;
#X connect 30 0 0 0;
#X connect 31 0 0 0;
#X connect 32 0 0 0;
#X restore 1570 1972 pd receive_gate;
#X obj 1571 2092 delay;
#X msg 1571 2114 0;
#X obj 1598 2039 *;
#X obj 1624 2015 r \$0-ms_per_beat;
#X obj 482 515 vsl 23 64 0 1 0 0 empty empty gates -3 -9 0 10 -191407
-1 -1 3100 1;
#N canvas 1012 191 404 300 presets 0;
#X obj 13 46 bng 15 250 50 0 empty empty load 17 7 0 11 -262144 -1
-1;
#X obj 13 28 bng 15 250 50 0 empty empty save 17 7 0 11 -262144 -1
-1;
#X msg 155 207 set;
#X obj 155 183 delay 5000;
#X obj 155 154 bng 15 250 50 0 empty empty empty 17 7 0 10 -262144
-1 -1;
#N canvas 157 78 690 819 save_preset 0;
#X obj 79 77 inlet;
#X obj 79 100 bng 15 250 50 0 empty empty empty 17 7 0 10 -262144 -1
-1;
#X obj 8 424 openpanel;
#X obj 282 604 textfile;
#X msg 389 326 clear;
#X msg 8 481 write \$1;
#X msg 282 381 add \$1 \$2 \$3 \$4 \$5 \$6 \$7 \$8 \$9 \$10 \$11 \$12
\$13 \$14 \$15 \$16 \$17 \$18 \$19 \$20 \$21 \$22 \$23 \$24 \$25 \$26
\$27 \$28 \$29 \$30 \$31 \$32 \$33 \$34 \$35 \$36 \$37 \$38 \$39 \$40
\$41 \$42 \$43 \$44 \$45 \$46 \$47 \$48 \$49 \$50 \$51 \$52 \$53 \$54
\$55 \$56 \$57 \$58 \$59 \$60 \$61 \$62 \$63 \$64 \$65 \$66 \$67 \$68
\$69 \$70 \$71 \$72 \$73 \$74 \$75 \$76 \$77 \$78 \$79 \$80 \$81 \$82
\$83 \$84 \$85 \$86 \$87 \$88 \$89 \$90 \$91 \$92 \$93 \$94 \$95 \$96
\$97 \$98 \$99 \$100 \$101 \$102 \$103;
#X obj 79 123 t b b b b;
#N canvas 0 50 1858 1037 bang_values 0;
#X obj 294 141 s \$0-to_beats;
#X obj 307 162 s \$0-to_steps;
#X obj 319 184 s \$0-to_delay;
#X obj 358 247 s \$0-to_high_note;
#X obj 374 269 s \$0-to_low_note;
#X obj 387 291 s \$0-to_pitch01;
#X obj 398 313 s \$0-to_pitch02;
#X obj 409 335 s \$0-to_pitch03;
#X obj 420 357 s \$0-to_pitch04;
#X obj 433 379 s \$0-to_pitch05;
#X obj 444 401 s \$0-to_pitch06;
#X obj 455 423 s \$0-to_pitch07;
#X obj 467 445 s \$0-to_pitch08;
#X obj 479 469 s \$0-to_pitch09;
#X obj 489 491 s \$0-to_pitch10;
#X obj 500 513 s \$0-to_pitch11;
#X obj 511 535 s \$0-to_pitch12;
#X obj 524 557 s \$0-to_pitch13;
#X obj 535 579 s \$0-to_pitch14;
#X obj 546 601 s \$0-to_pitch15;
#X obj 558 622 s \$0-to_pitch16;
#X obj 568 645 s \$0-to_pitch17;
#X obj 579 667 s \$0-to_pitch18;
#X obj 590 689 s \$0-to_pitch19;
#X obj 602 711 s \$0-to_pitch20;
#X obj 614 733 s \$0-to_pitch21;
#X obj 625 755 s \$0-to_pitch22;
#X obj 636 777 s \$0-to_pitch23;
#X obj 648 799 s \$0-to_pitch24;
#X obj 660 823 s \$0-to_pitch25;
#X obj 670 845 s \$0-to_pitch26;
#X obj 681 867 s \$0-to_pitch27;
#X obj 692 889 s \$0-to_pitch28;
#X obj 705 911 s \$0-to_pitch29;
#X obj 716 933 s \$0-to_pitch30;
#X obj 727 955 s \$0-to_pitch31;
#X obj 739 976 s \$0-to_pitch32;
#X obj 755 999 s \$0-to_vel01;
#X obj 766 1021 s \$0-to_vel02;
#X obj 777 1043 s \$0-to_vel03;
#X obj 788 1065 s \$0-to_vel04;
#X obj 801 1087 s \$0-to_vel05;
#X obj 812 1109 s \$0-to_vel06;
#X obj 823 1131 s \$0-to_vel07;
#X obj 835 1153 s \$0-to_vel08;
#X obj 847 1177 s \$0-to_vel09;
#X obj 857 1199 s \$0-to_vel10;
#X obj 868 1221 s \$0-to_vel11;
#X obj 879 1243 s \$0-to_vel12;
#X obj 892 1265 s \$0-to_vel13;
#X obj 903 1287 s \$0-to_vel14;
#X obj 914 1309 s \$0-to_vel15;
#X obj 926 1330 s \$0-to_vel16;
#X obj 936 1353 s \$0-to_vel17;
#X obj 947 1375 s \$0-to_vel18;
#X obj 958 1397 s \$0-to_vel19;
#X obj 970 1419 s \$0-to_vel20;
#X obj 982 1441 s \$0-to_vel21;
#X obj 993 1463 s \$0-to_vel22;
#X obj 1004 1485 s \$0-to_vel23;
#X obj 1016 1507 s \$0-to_vel24;
#X obj 1028 1531 s \$0-to_vel25;
#X obj 1038 1553 s \$0-to_vel26;
#X obj 1049 1575 s \$0-to_vel27;
#X obj 1060 1597 s \$0-to_vel28;
#X obj 1073 1619 s \$0-to_vel29;
#X obj 1084 1641 s \$0-to_vel30;
#X obj 1095 1663 s \$0-to_vel31;
#X obj 1107 1684 s \$0-to_vel32;
#X obj 1122 1707 s \$0-to_gate01;
#X obj 1133 1729 s \$0-to_gate02;
#X obj 1144 1751 s \$0-to_gate03;
#X obj 1155 1773 s \$0-to_gate04;
#X obj 1168 1795 s \$0-to_gate05;
#X obj 1179 1817 s \$0-to_gate06;
#X obj 1190 1839 s \$0-to_gate07;
#X obj 1202 1861 s \$0-to_gate08;
#X obj 1214 1885 s \$0-to_gate09;
#X obj 1224 1907 s \$0-to_gate10;
#X obj 1235 1929 s \$0-to_gate11;
#X obj 1246 1951 s \$0-to_gate12;
#X obj 1259 1973 s \$0-to_gate13;
#X obj 1270 1995 s \$0-to_gate14;
#X obj 1281 2017 s \$0-to_gate15;
#X obj 1293 2038 s \$0-to_gate16;
#X obj 1303 2061 s \$0-to_gate17;
#X obj 1314 2083 s \$0-to_gate18;
#X obj 1325 2105 s \$0-to_gate19;
#X obj 1337 2127 s \$0-to_gate20;
#X obj 1349 2149 s \$0-to_gate21;
#X obj 1360 2171 s \$0-to_gate22;
#X obj 1371 2193 s \$0-to_gate23;
#X obj 1383 2215 s \$0-to_gate24;
#X obj 1395 2239 s \$0-to_gate25;
#X obj 1405 2261 s \$0-to_gate26;
#X obj 1416 2283 s \$0-to_gate27;
#X obj 1427 2305 s \$0-to_gate28;
#X obj 1440 2327 s \$0-to_gate29;
#X obj 1451 2349 s \$0-to_gate30;
#X obj 1462 2371 s \$0-to_gate31;
#X obj 1474 2392 s \$0-to_gate32;
#X obj 369 35 inlet;
#X obj 349 62 bng 15 250 50 0 empty empty empty 17 7 0 10 -262144 -1
-1;
#X obj 294 83 t b b b b b b b b b b b b b b b b b b b b b b b b b b
b b b b b b b b b b b b b b b b b b b b b b b b b b b b b b b b b b
b b b b b b b b b b b b b b b b b b b b b b b b b b b b b b b b b b
b b b b b b b b b, f 212;
#X connect 101 0 102 0;
#X connect 102 0 103 0;
#X connect 103 0 0 0;
#X connect 103 1 1 0;
#X connect 103 2 2 0;
#X connect 103 5 3 0;
#X connect 103 6 4 0;
#X connect 103 7 5 0;
#X connect 103 8 6 0;
#X connect 103 9 7 0;
#X connect 103 10 8 0;
#X connect 103 11 9 0;
#X connect 103 12 10 0;
#X connect 103 13 11 0;
#X connect 103 14 12 0;
#X connect 103 15 13 0;
#X connect 103 16 14 0;
#X connect 103 17 15 0;
#X connect 103 18 16 0;
#X connect 103 19 17 0;
#X connect 103 20 18 0;
#X connect 103 21 19 0;
#X connect 103 22 20 0;
#X connect 103 23 21 0;
#X connect 103 24 22 0;
#X connect 103 25 23 0;
#X connect 103 26 24 0;
#X connect 103 27 25 0;
#X connect 103 28 26 0;
#X connect 103 29 27 0;
#X connect 103 30 28 0;
#X connect 103 31 29 0;
#X connect 103 32 30 0;
#X connect 103 33 31 0;
#X connect 103 34 32 0;
#X connect 103 35 33 0;
#X connect 103 36 34 0;
#X connect 103 37 35 0;
#X connect 103 38 36 0;
#X connect 103 39 37 0;
#X connect 103 40 38 0;
#X connect 103 41 39 0;
#X connect 103 42 40 0;
#X connect 103 43 41 0;
#X connect 103 44 42 0;
#X connect 103 45 43 0;
#X connect 103 46 44 0;
#X connect 103 47 45 0;
#X connect 103 48 46 0;
#X connect 103 49 47 0;
#X connect 103 50 48 0;
#X connect 103 51 49 0;
#X connect 103 52 50 0;
#X connect 103 53 51 0;
#X connect 103 54 52 0;
#X connect 103 55 53 0;
#X connect 103 56 54 0;
#X connect 103 57 55 0;
#X connect 103 58 56 0;
#X connect 103 59 57 0;
#X connect 103 60 58 0;
#X connect 103 61 59 0;
#X connect 103 62 60 0;
#X connect 103 63 61 0;
#X connect 103 64 62 0;
#X connect 103 65 63 0;
#X connect 103 66 64 0;
#X connect 103 67 65 0;
#X connect 103 68 66 0;
#X connect 103 69 67 0;
#X connect 103 70 68 0;
#X connect 103 71 69 0;
#X connect 103 72 70 0;
#X connect 103 73 71 0;
#X connect 103 74 72 0;
#X connect 103 75 73 0;
#X connect 103 76 74 0;
#X connect 103 77 75 0;
#X connect 103 78 76 0;
#X connect 103 79 77 0;
#X connect 103 80 78 0;
#X connect 103 81 79 0;
#X connect 103 82 80 0;
#X connect 103 83 81 0;
#X connect 103 84 82 0;
#X connect 103 85 83 0;
#X connect 103 86 84 0;
#X connect 103 87 85 0;
#X connect 103 88 86 0;
#X connect 103 89 87 0;
#X connect 103 90 88 0;
#X connect 103 91 89 0;
#X connect 103 92 90 0;
#X connect 103 93 91 0;
#X connect 103 94 92 0;
#X connect 103 95 93 0;
#X connect 103 96 94 0;
#X connect 103 97 95 0;
#X connect 103 98 96 0;
#X connect 103 99 97 0;
#X connect 103 100 98 0;
#X connect 103 101 99 0;
#X connect 103 102 100 0;
#X restore 179 155 pd bang_values;
#X obj 86 482 outlet;
#N canvas 0 50 1858 1037 pack_values 0;
#X obj 437 30 r \$0-from_beats;
#X obj 450 51 r \$0-from_steps;
#X obj 462 73 r \$0-from_delay;
#X obj 501 136 r \$0-from_high_note;
#X obj 517 158 r \$0-from_low_note;
#X obj 530 180 r \$0-from_pitch01;
#X obj 541 202 r \$0-from_pitch02;
#X obj 552 224 r \$0-from_pitch03;
#X obj 563 246 r \$0-from_pitch04;
#X obj 576 268 r \$0-from_pitch05;
#X obj 587 290 r \$0-from_pitch06;
#X obj 598 312 r \$0-from_pitch07;
#X obj 610 334 r \$0-from_pitch08;
#X obj 622 358 r \$0-from_pitch09;
#X obj 632 380 r \$0-from_pitch10;
#X obj 643 402 r \$0-from_pitch11;
#X obj 654 424 r \$0-from_pitch12;
#X obj 667 446 r \$0-from_pitch13;
#X obj 678 468 r \$0-from_pitch14;
#X obj 689 490 r \$0-from_pitch15;
#X obj 701 511 r \$0-from_pitch16;
#X obj 711 534 r \$0-from_pitch17;
#X obj 722 556 r \$0-from_pitch18;
#X obj 733 578 r \$0-from_pitch19;
#X obj 745 600 r \$0-from_pitch20;
#X obj 757 622 r \$0-from_pitch21;
#X obj 768 644 r \$0-from_pitch22;
#X obj 779 666 r \$0-from_pitch23;
#X obj 791 688 r \$0-from_pitch24;
#X obj 803 712 r \$0-from_pitch25;
#X obj 813 734 r \$0-from_pitch26;
#X obj 824 756 r \$0-from_pitch27;
#X obj 835 778 r \$0-from_pitch28;
#X obj 848 800 r \$0-from_pitch29;
#X obj 859 822 r \$0-from_pitch30;
#X obj 870 844 r \$0-from_pitch31;
#X obj 882 865 r \$0-from_pitch32;
#X obj 898 888 r \$0-from_vel01;
#X obj 909 910 r \$0-from_vel02;
#X obj 920 932 r \$0-from_vel03;
#X obj 931 954 r \$0-from_vel04;
#X obj 944 976 r \$0-from_vel05;
#X obj 955 998 r \$0-from_vel06;
#X obj 966 1020 r \$0-from_vel07;
#X obj 978 1042 r \$0-from_vel08;
#X obj 990 1066 r \$0-from_vel09;
#X obj 1000 1088 r \$0-from_vel10;
#X obj 1011 1110 r \$0-from_vel11;
#X obj 1022 1132 r \$0-from_vel12;
#X obj 1035 1154 r \$0-from_vel13;
#X obj 1046 1176 r \$0-from_vel14;
#X obj 1057 1198 r \$0-from_vel15;
#X obj 1069 1219 r \$0-from_vel16;
#X obj 1079 1242 r \$0-from_vel17;
#X obj 1090 1264 r \$0-from_vel18;
#X obj 1101 1286 r \$0-from_vel19;
#X obj 1113 1308 r \$0-from_vel20;
#X obj 1125 1330 r \$0-from_vel21;
#X obj 1136 1352 r \$0-from_vel22;
#X obj 1147 1374 r \$0-from_vel23;
#X obj 1159 1396 r \$0-from_vel24;
#X obj 1171 1420 r \$0-from_vel25;
#X obj 1181 1442 r \$0-from_vel26;
#X obj 1192 1464 r \$0-from_vel27;
#X obj 1203 1486 r \$0-from_vel28;
#X obj 1216 1508 r \$0-from_vel29;
#X obj 1227 1530 r \$0-from_vel30;
#X obj 1238 1552 r \$0-from_vel31;
#X obj 1250 1573 r \$0-from_vel32;
#X obj 1265 1596 r \$0-from_gate01;
#X obj 1276 1618 r \$0-from_gate02;
#X obj 1287 1640 r \$0-from_gate03;
#X obj 1298 1662 r \$0-from_gate04;
#X obj 1311 1684 r \$0-from_gate05;
#X obj 1322 1706 r \$0-from_gate06;
#X obj 1333 1728 r \$0-from_gate07;
#X obj 1345 1750 r \$0-from_gate08;
#X obj 1357 1774 r \$0-from_gate09;
#X obj 1367 1796 r \$0-from_gate10;
#X obj 1378 1818 r \$0-from_gate11;
#X obj 1389 1840 r \$0-from_gate12;
#X obj 1402 1862 r \$0-from_gate13;
#X obj 1413 1884 r \$0-from_gate14;
#X obj 1424 1906 r \$0-from_gate15;
#X obj 1436 1927 r \$0-from_gate16;
#X obj 1446 1950 r \$0-from_gate17;
#X obj 1457 1972 r \$0-from_gate18;
#X obj 1468 1994 r \$0-from_gate19;
#X obj 1480 2016 r \$0-from_gate20;
#X obj 1492 2038 r \$0-from_gate21;
#X obj 1503 2060 r \$0-from_gate22;
#X obj 1514 2082 r \$0-from_gate23;
#X obj 1526 2104 r \$0-from_gate24;
#X obj 1538 2128 r \$0-from_gate25;
#X obj 1548 2150 r \$0-from_gate26;
#X obj 1559 2172 r \$0-from_gate27;
#X obj 1570 2194 r \$0-from_gate28;
#X obj 1583 2216 r \$0-from_gate29;
#X obj 1594 2238 r \$0-from_gate30;
#X obj 1605 2260 r \$0-from_gate31;
#X obj 1617 2281 r \$0-from_gate32;
#X obj 141 2329 outlet;
#X obj 105 2083 inlet;
#X obj 117 2155 bng 15 250 50 0 empty empty empty 17 7 0 10 -262144
-1 -1;
#X obj 139 2303 pack f f f f f f f f f f f f f f f f f f f f f f f
f f f f f f f f f f f f f f f f f f f f f f f f f f f f f f f f f f
f f f f f f f f f f f f f f f f f f f f f f f f f f f f f f f f f f
f f f f f f f f f f f f, f 211;
#X connect 0 0 104 0;
#X connect 1 0 104 1;
#X connect 2 0 104 2;
#X connect 3 0 104 5;
#X connect 4 0 104 6;
#X connect 5 0 104 7;
#X connect 6 0 104 8;
#X connect 7 0 104 9;
#X connect 8 0 104 10;
#X connect 9 0 104 11;
#X connect 10 0 104 12;
#X connect 11 0 104 13;
#X connect 12 0 104 14;
#X connect 13 0 104 15;
#X connect 14 0 104 16;
#X connect 15 0 104 17;
#X connect 16 0 104 18;
#X connect 17 0 104 19;
#X connect 18 0 104 20;
#X connect 19 0 104 21;
#X connect 20 0 104 22;
#X connect 21 0 104 23;
#X connect 22 0 104 24;
#X connect 23 0 104 25;
#X connect 24 0 104 26;
#X connect 25 0 104 27;
#X connect 26 0 104 28;
#X connect 27 0 104 29;
#X connect 28 0 104 30;
#X connect 29 0 104 31;
#X connect 30 0 104 32;
#X connect 31 0 104 33;
#X connect 32 0 104 34;
#X connect 33 0 104 35;
#X connect 34 0 104 36;
#X connect 35 0 104 37;
#X connect 36 0 104 38;
#X connect 37 0 104 39;
#X connect 38 0 104 40;
#X connect 39 0 104 41;
#X connect 40 0 104 42;
#X connect 41 0 104 43;
#X connect 42 0 104 44;
#X connect 43 0 104 45;
#X connect 44 0 104 46;
#X connect 45 0 104 47;
#X connect 46 0 104 48;
#X connect 47 0 104 49;
#X connect 48 0 104 50;
#X connect 49 0 104 51;
#X connect 50 0 104 52;
#X connect 51 0 104 53;
#X connect 52 0 104 54;
#X connect 53 0 104 55;
#X connect 54 0 104 56;
#X connect 55 0 104 57;
#X connect 56 0 104 58;
#X connect 57 0 104 59;
#X connect 58 0 104 60;
#X connect 59 0 104 61;
#X connect 60 0 104 62;
#X connect 61 0 104 63;
#X connect 62 0 104 64;
#X connect 63 0 104 65;
#X connect 64 0 104 66;
#X connect 65 0 104 67;
#X connect 66 0 104 68;
#X connect 67 0 104 69;
#X connect 68 0 104 70;
#X connect 69 0 104 71;
#X connect 70 0 104 72;
#X connect 71 0 104 73;
#X connect 72 0 104 74;
#X connect 73 0 104 75;
#X connect 74 0 104 76;
#X connect 75 0 104 77;
#X connect 76 0 104 78;
#X connect 77 0 104 79;
#X connect 78 0 104 80;
#X connect 79 0 104 81;
#X connect 80 0 104 82;
#X connect 81 0 104 83;
#X connect 82 0 104 84;
#X connect 83 0 104 85;
#X connect 84 0 104 86;
#X connect 85 0 104 87;
#X connect 86 0 104 88;
#X connect 87 0 104 89;
#X connect 88 0 104 90;
#X connect 89 0 104 91;
#X connect 90 0 104 92;
#X connect 91 0 104 93;
#X connect 92 0 104 94;
#X connect 93 0 104 95;
#X connect 94 0 104 96;
#X connect 95 0 104 97;
#X connect 96 0 104 98;
#X connect 97 0 104 99;
#X connect 98 0 104 100;
#X connect 99 0 104 101;
#X connect 100 0 104 102;
#X connect 102 0 103 0;
#X connect 103 0 104 0;
#X connect 104 0 101 0;
#X restore 282 355 pd pack_values;
#X msg 86 460 set preset saved \$1;
#X msg 8 402 symbol .;
#X connect 0 0 1 0;
#X connect 1 0 7 0;
#X connect 2 0 5 0;
#X connect 2 0 11 0;
#X connect 4 0 3 0;
#X connect 5 0 3 0;
#X connect 6 0 3 0;
#X connect 7 0 12 0;
#X connect 7 1 10 0;
#X connect 7 2 4 0;
#X connect 7 3 8 0;
#X connect 10 0 6 0;
#X connect 11 0 9 0;
#X connect 12 0 2 0;
#X restore 46 125 pd save_preset;
#N canvas 792 86 927 1028 load_preset 0;
#X obj 187 30 inlet;
#X obj 187 58 bng 15 250 50 0 empty empty empty 17 7 0 10 -262144 -1
-1;
#X obj 187 104 openpanel;
#X msg 187 129 read \$1;
#X obj 187 156 bng 15 250 50 0 empty empty empty 17 7 0 10 -262144
-1 -1;
#X msg 233 231 rewind;
#X obj 210 348 textfile;
#X obj 187 180 delay 0;
#X text 25 180 need time to read file;
#N canvas 0 50 1858 1037 bang_values 0;
#X obj 294 141 s \$0-to_beats;
#X obj 307 162 s \$0-to_steps;
#X obj 319 184 s \$0-to_delay;
#X obj 358 247 s \$0-to_high_note;
#X obj 374 269 s \$0-to_low_note;
#X obj 387 291 s \$0-to_pitch01;
#X obj 398 313 s \$0-to_pitch02;
#X obj 409 335 s \$0-to_pitch03;
#X obj 420 357 s \$0-to_pitch04;
#X obj 433 379 s \$0-to_pitch05;
#X obj 444 401 s \$0-to_pitch06;
#X obj 455 423 s \$0-to_pitch07;
#X obj 467 445 s \$0-to_pitch08;
#X obj 479 469 s \$0-to_pitch09;
#X obj 489 491 s \$0-to_pitch10;
#X obj 500 513 s \$0-to_pitch11;
#X obj 511 535 s \$0-to_pitch12;
#X obj 524 557 s \$0-to_pitch13;
#X obj 535 579 s \$0-to_pitch14;
#X obj 546 601 s \$0-to_pitch15;
#X obj 558 622 s \$0-to_pitch16;
#X obj 568 645 s \$0-to_pitch17;
#X obj 579 667 s \$0-to_pitch18;
#X obj 590 689 s \$0-to_pitch19;
#X obj 602 711 s \$0-to_pitch20;
#X obj 614 733 s \$0-to_pitch21;
#X obj 625 755 s \$0-to_pitch22;
#X obj 636 777 s \$0-to_pitch23;
#X obj 648 799 s \$0-to_pitch24;
#X obj 660 823 s \$0-to_pitch25;
#X obj 670 845 s \$0-to_pitch26;
#X obj 681 867 s \$0-to_pitch27;
#X obj 692 889 s \$0-to_pitch28;
#X obj 705 911 s \$0-to_pitch29;
#X obj 716 933 s \$0-to_pitch30;
#X obj 727 955 s \$0-to_pitch31;
#X obj 739 976 s \$0-to_pitch32;
#X obj 755 999 s \$0-to_vel01;
#X obj 766 1021 s \$0-to_vel02;
#X obj 777 1043 s \$0-to_vel03;
#X obj 788 1065 s \$0-to_vel04;
#X obj 801 1087 s \$0-to_vel05;
#X obj 812 1109 s \$0-to_vel06;
#X obj 823 1131 s \$0-to_vel07;
#X obj 835 1153 s \$0-to_vel08;
#X obj 847 1177 s \$0-to_vel09;
#X obj 857 1199 s \$0-to_vel10;
#X obj 868 1221 s \$0-to_vel11;
#X obj 879 1243 s \$0-to_vel12;
#X obj 892 1265 s \$0-to_vel13;
#X obj 903 1287 s \$0-to_vel14;
#X obj 914 1309 s \$0-to_vel15;
#X obj 926 1330 s \$0-to_vel16;
#X obj 936 1353 s \$0-to_vel17;
#X obj 947 1375 s \$0-to_vel18;
#X obj 958 1397 s \$0-to_vel19;
#X obj 970 1419 s \$0-to_vel20;
#X obj 982 1441 s \$0-to_vel21;
#X obj 993 1463 s \$0-to_vel22;
#X obj 1004 1485 s \$0-to_vel23;
#X obj 1016 1507 s \$0-to_vel24;
#X obj 1028 1531 s \$0-to_vel25;
#X obj 1038 1553 s \$0-to_vel26;
#X obj 1049 1575 s \$0-to_vel27;
#X obj 1060 1597 s \$0-to_vel28;
#X obj 1073 1619 s \$0-to_vel29;
#X obj 1084 1641 s \$0-to_vel30;
#X obj 1095 1663 s \$0-to_vel31;
#X obj 1107 1684 s \$0-to_vel32;
#X obj 1122 1707 s \$0-to_gate01;
#X obj 1133 1729 s \$0-to_gate02;
#X obj 1144 1751 s \$0-to_gate03;
#X obj 1155 1773 s \$0-to_gate04;
#X obj 1168 1795 s \$0-to_gate05;
#X obj 1179 1817 s \$0-to_gate06;
#X obj 1190 1839 s \$0-to_gate07;
#X obj 1202 1861 s \$0-to_gate08;
#X obj 1214 1885 s \$0-to_gate09;
#X obj 1224 1907 s \$0-to_gate10;
#X obj 1235 1929 s \$0-to_gate11;
#X obj 1246 1951 s \$0-to_gate12;
#X obj 1259 1973 s \$0-to_gate13;
#X obj 1270 1995 s \$0-to_gate14;
#X obj 1281 2017 s \$0-to_gate15;
#X obj 1293 2038 s \$0-to_gate16;
#X obj 1303 2061 s \$0-to_gate17;
#X obj 1314 2083 s \$0-to_gate18;
#X obj 1325 2105 s \$0-to_gate19;
#X obj 1337 2127 s \$0-to_gate20;
#X obj 1349 2149 s \$0-to_gate21;
#X obj 1360 2171 s \$0-to_gate22;
#X obj 1371 2193 s \$0-to_gate23;
#X obj 1383 2215 s \$0-to_gate24;
#X obj 1395 2239 s \$0-to_gate25;
#X obj 1405 2261 s \$0-to_gate26;
#X obj 1416 2283 s \$0-to_gate27;
#X obj 1427 2305 s \$0-to_gate28;
#X obj 1440 2327 s \$0-to_gate29;
#X obj 1451 2349 s \$0-to_gate30;
#X obj 1462 2371 s \$0-to_gate31;
#X obj 1474 2392 s \$0-to_gate32;
#X obj 369 35 inlet;
#X obj 349 62 bng 15 250 50 0 empty empty empty 17 7 0 10 -262144 -1
-1;
#X obj 294 83 t b b b b b b b b b b b b b b b b b b b b b b b b b b
b b b b b b b b b b b b b b b b b b b b b b b b b b b b b b b b b b
b b b b b b b b b b b b b b b b b b b b b b b b b b b b b b b b b b
b b b b b b b b b, f 212;
#X connect 101 0 102 0;
#X connect 102 0 103 0;
#X connect 103 0 0 0;
#X connect 103 1 1 0;
#X connect 103 2 2 0;
#X connect 103 5 3 0;
#X connect 103 6 4 0;
#X connect 103 7 5 0;
#X connect 103 8 6 0;
#X connect 103 9 7 0;
#X connect 103 10 8 0;
#X connect 103 11 9 0;
#X connect 103 12 10 0;
#X connect 103 13 11 0;
#X connect 103 14 12 0;
#X connect 103 15 13 0;
#X connect 103 16 14 0;
#X connect 103 17 15 0;
#X connect 103 18 16 0;
#X connect 103 19 17 0;
#X connect 103 20 18 0;
#X connect 103 21 19 0;
#X connect 103 22 20 0;
#X connect 103 23 21 0;
#X connect 103 24 22 0;
#X connect 103 25 23 0;
#X connect 103 26 24 0;
#X connect 103 27 25 0;
#X connect 103 28 26 0;
#X connect 103 29 27 0;
#X connect 103 30 28 0;
#X connect 103 31 29 0;
#X connect 103 32 30 0;
#X connect 103 33 31 0;
#X connect 103 34 32 0;
#X connect 103 35 33 0;
#X connect 103 36 34 0;
#X connect 103 37 35 0;
#X connect 103 38 36 0;
#X connect 103 39 37 0;
#X connect 103 40 38 0;
#X connect 103 41 39 0;
#X connect 103 42 40 0;
#X connect 103 43 41 0;
#X connect 103 44 42 0;
#X connect 103 45 43 0;
#X connect 103 46 44 0;
#X connect 103 47 45 0;
#X connect 103 48 46 0;
#X connect 103 49 47 0;
#X connect 103 50 48 0;
#X connect 103 51 49 0;
#X connect 103 52 50 0;
#X connect 103 53 51 0;
#X connect 103 54 52 0;
#X connect 103 55 53 0;
#X connect 103 56 54 0;
#X connect 103 57 55 0;
#X connect 103 58 56 0;
#X connect 103 59 57 0;
#X connect 103 60 58 0;
#X connect 103 61 59 0;
#X connect 103 62 60 0;
#X connect 103 63 61 0;
#X connect 103 64 62 0;
#X connect 103 65 63 0;
#X connect 103 66 64 0;
#X connect 103 67 65 0;
#X connect 103 68 66 0;
#X connect 103 69 67 0;
#X connect 103 70 68 0;
#X connect 103 71 69 0;
#X connect 103 72 70 0;
#X connect 103 73 71 0;
#X connect 103 74 72 0;
#X connect 103 75 73 0;
#X connect 103 76 74 0;
#X connect 103 77 75 0;
#X connect 103 78 76 0;
#X connect 103 79 77 0;
#X connect 103 80 78 0;
#X connect 103 81 79 0;
#X connect 103 82 80 0;
#X connect 103 83 81 0;
#X connect 103 84 82 0;
#X connect 103 85 83 0;
#X connect 103 86 84 0;
#X connect 103 87 85 0;
#X connect 103 88 86 0;
#X connect 103 89 87 0;
#X connect 103 90 88 0;
#X connect 103 91 89 0;
#X connect 103 92 90 0;
#X connect 103 93 91 0;
#X connect 103 94 92 0;
#X connect 103 95 93 0;
#X connect 103 96 94 0;
#X connect 103 97 95 0;
#X connect 103 98 96 0;
#X connect 103 99 97 0;
#X connect 103 100 98 0;
#X connect 103 101 99 0;
#X connect 103 102 100 0;
#X restore 187 395 pd bang_values;
#X obj 187 205 t b b b;
#X obj 41 321 outlet;
#X obj 366 116 loadbang;
#X obj 366 207 t b b b;
#X obj 366 163 bng 15 250 50 0 empty empty empty 17 7 0 10 -262144
-1 -1;
#X obj 366 183 delay 0;
#X msg 412 231 rewind;
#N canvas 0 50 1858 1037 unpack_values 0;
#X obj 294 141 s \$0-to_beats;
#X obj 307 162 s \$0-to_steps;
#X obj 319 184 s \$0-to_delay;
#X obj 358 247 s \$0-to_high_note;
#X obj 374 269 s \$0-to_low_note;
#X obj 387 291 s \$0-to_pitch01;
#X obj 398 313 s \$0-to_pitch02;
#X obj 409 335 s \$0-to_pitch03;
#X obj 420 357 s \$0-to_pitch04;
#X obj 433 379 s \$0-to_pitch05;
#X obj 444 401 s \$0-to_pitch06;
#X obj 455 423 s \$0-to_pitch07;
#X obj 467 445 s \$0-to_pitch08;
#X obj 479 469 s \$0-to_pitch09;
#X obj 489 491 s \$0-to_pitch10;
#X obj 500 513 s \$0-to_pitch11;
#X obj 511 535 s \$0-to_pitch12;
#X obj 524 557 s \$0-to_pitch13;
#X obj 535 579 s \$0-to_pitch14;
#X obj 546 601 s \$0-to_pitch15;
#X obj 558 622 s \$0-to_pitch16;
#X obj 568 645 s \$0-to_pitch17;
#X obj 579 667 s \$0-to_pitch18;
#X obj 590 689 s \$0-to_pitch19;
#X obj 602 711 s \$0-to_pitch20;
#X obj 614 733 s \$0-to_pitch21;
#X obj 625 755 s \$0-to_pitch22;
#X obj 636 777 s \$0-to_pitch23;
#X obj 648 799 s \$0-to_pitch24;
#X obj 660 823 s \$0-to_pitch25;
#X obj 670 845 s \$0-to_pitch26;
#X obj 681 867 s \$0-to_pitch27;
#X obj 692 889 s \$0-to_pitch28;
#X obj 705 911 s \$0-to_pitch29;
#X obj 716 933 s \$0-to_pitch30;
#X obj 727 955 s \$0-to_pitch31;
#X obj 739 976 s \$0-to_pitch32;
#X obj 755 999 s \$0-to_vel01;
#X obj 766 1021 s \$0-to_vel02;
#X obj 777 1043 s \$0-to_vel03;
#X obj 788 1065 s \$0-to_vel04;
#X obj 801 1087 s \$0-to_vel05;
#X obj 812 1109 s \$0-to_vel06;
#X obj 823 1131 s \$0-to_vel07;
#X obj 835 1153 s \$0-to_vel08;
#X obj 847 1177 s \$0-to_vel09;
#X obj 857 1199 s \$0-to_vel10;
#X obj 868 1221 s \$0-to_vel11;
#X obj 879 1243 s \$0-to_vel12;
#X obj 892 1265 s \$0-to_vel13;
#X obj 903 1287 s \$0-to_vel14;
#X obj 914 1309 s \$0-to_vel15;
#X obj 926 1330 s \$0-to_vel16;
#X obj 936 1353 s \$0-to_vel17;
#X obj 947 1375 s \$0-to_vel18;
#X obj 958 1397 s \$0-to_vel19;
#X obj 970 1419 s \$0-to_vel20;
#X obj 982 1441 s \$0-to_vel21;
#X obj 993 1463 s \$0-to_vel22;
#X obj 1004 1485 s \$0-to_vel23;
#X obj 1016 1507 s \$0-to_vel24;
#X obj 1028 1531 s \$0-to_vel25;
#X obj 1038 1553 s \$0-to_vel26;
#X obj 1049 1575 s \$0-to_vel27;
#X obj 1060 1597 s \$0-to_vel28;
#X obj 1073 1619 s \$0-to_vel29;
#X obj 1084 1641 s \$0-to_vel30;
#X obj 1095 1663 s \$0-to_vel31;
#X obj 1107 1684 s \$0-to_vel32;
#X obj 1122 1707 s \$0-to_gate01;
#X obj 1133 1729 s \$0-to_gate02;
#X obj 1144 1751 s \$0-to_gate03;
#X obj 1155 1773 s \$0-to_gate04;
#X obj 1168 1795 s \$0-to_gate05;
#X obj 1179 1817 s \$0-to_gate06;
#X obj 1190 1839 s \$0-to_gate07;
#X obj 1202 1861 s \$0-to_gate08;
#X obj 1214 1885 s \$0-to_gate09;
#X obj 1224 1907 s \$0-to_gate10;
#X obj 1235 1929 s \$0-to_gate11;
#X obj 1246 1951 s \$0-to_gate12;
#X obj 1259 1973 s \$0-to_gate13;
#X obj 1270 1995 s \$0-to_gate14;
#X obj 1281 2017 s \$0-to_gate15;
#X obj 1293 2038 s \$0-to_gate16;
#X obj 1303 2061 s \$0-to_gate17;
#X obj 1314 2083 s \$0-to_gate18;
#X obj 1325 2105 s \$0-to_gate19;
#X obj 1337 2127 s \$0-to_gate20;
#X obj 1349 2149 s \$0-to_gate21;
#X obj 1360 2171 s \$0-to_gate22;
#X obj 1371 2193 s \$0-to_gate23;
#X obj 1383 2215 s \$0-to_gate24;
#X obj 1395 2239 s \$0-to_gate25;
#X obj 1405 2261 s \$0-to_gate26;
#X obj 1416 2283 s \$0-to_gate27;
#X obj 1427 2305 s \$0-to_gate28;
#X obj 1440 2327 s \$0-to_gate29;
#X obj 1451 2349 s \$0-to_gate30;
#X obj 1462 2371 s \$0-to_gate31;
#X obj 1474 2392 s \$0-to_gate32;
#X obj 293 83 unpack f f f f f f f f f f f f f f f f f f f f f f f
f f f f f f f f f f f f f f f f f f f f f f f f f f f f f f f f f f
f f f f f f f f f f f f f f f f f f f f f f f f f f f f f f f f f f
f f f f f f f f f f f f, f 212;
#X obj 369 35 inlet;
#X connect 101 0 0 0;
#X connect 101 1 1 0;
#X connect 101 2 2 0;
#X connect 101 5 3 0;
#X connect 101 6 4 0;
#X connect 101 7 5 0;
#X connect 101 8 6 0;
#X connect 101 9 7 0;
#X connect 101 10 8 0;
#X connect 101 11 9 0;
#X connect 101 12 10 0;
#X connect 101 13 11 0;
#X connect 101 14 12 0;
#X connect 101 15 13 0;
#X connect 101 16 14 0;
#X connect 101 17 15 0;
#X connect 101 18 16 0;
#X connect 101 19 17 0;
#X connect 101 20 18 0;
#X connect 101 21 19 0;
#X connect 101 22 20 0;
#X connect 101 23 21 0;
#X connect 101 24 22 0;
#X connect 101 25 23 0;
#X connect 101 26 24 0;
#X connect 101 27 25 0;
#X connect 101 28 26 0;
#X connect 101 29 27 0;
#X connect 101 30 28 0;
#X connect 101 31 29 0;
#X connect 101 32 30 0;
#X connect 101 33 31 0;
#X connect 101 34 32 0;
#X connect 101 35 33 0;
#X connect 101 36 34 0;
#X connect 101 37 35 0;
#X connect 101 38 36 0;
#X connect 101 39 37 0;
#X connect 101 40 38 0;
#X connect 101 41 39 0;
#X connect 101 42 40 0;
#X connect 101 43 41 0;
#X connect 101 44 42 0;
#X connect 101 45 43 0;
#X connect 101 46 44 0;
#X connect 101 47 45 0;
#X connect 101 48 46 0;
#X connect 101 49 47 0;
#X connect 101 50 48 0;
#X connect 101 51 49 0;
#X connect 101 52 50 0;
#X connect 101 53 51 0;
#X connect 101 54 52 0;
#X connect 101 55 53 0;
#X connect 101 56 54 0;
#X connect 101 57 55 0;
#X connect 101 58 56 0;
#X connect 101 59 57 0;
#X connect 101 60 58 0;
#X connect 101 61 59 0;
#X connect 101 62 60 0;
#X connect 101 63 61 0;
#X connect 101 64 62 0;
#X connect 101 65 63 0;
#X connect 101 66 64 0;
#X connect 101 67 65 0;
#X connect 101 68 66 0;
#X connect 101 69 67 0;
#X connect 101 70 68 0;
#X connect 101 71 69 0;
#X connect 101 72 70 0;
#X connect 101 73 71 0;
#X connect 101 74 72 0;
#X connect 101 75 73 0;
#X connect 101 76 74 0;
#X connect 101 77 75 0;
#X connect 101 78 76 0;
#X connect 101 79 77 0;
#X connect 101 80 78 0;
#X connect 101 81 79 0;
#X connect 101 82 80 0;
#X connect 101 83 81 0;
#X connect 101 84 82 0;
#X connect 101 85 83 0;
#X connect 101 86 84 0;
#X connect 101 87 85 0;
#X connect 101 88 86 0;
#X connect 101 89 87 0;
#X connect 101 90 88 0;
#X connect 101 91 89 0;
#X connect 101 92 90 0;
#X connect 101 93 91 0;
#X connect 101 94 92 0;
#X connect 101 95 93 0;
#X connect 101 96 94 0;
#X connect 101 97 95 0;
#X connect 101 98 96 0;
#X connect 101 99 97 0;
#X connect 101 100 98 0;
#X connect 101 101 99 0;
#X connect 101 102 100 0;
#X connect 102 0 101 0;
#X restore 210 373 pd unpack_values;
#X msg 41 299 set preset loaded \$1;
#X msg 187 82 symbol .;
#X msg 366 140 read .;
#X connect 0 0 1 0;
#X connect 1 0 19 0;
#X connect 2 0 3 0;
#X connect 2 0 18 0;
#X connect 3 0 6 0;
#X connect 3 0 4 0;
#X connect 4 0 7 0;
#X connect 5 0 6 0;
#X connect 6 0 17 0;
#X connect 7 0 10 0;
#X connect 10 0 9 0;
#X connect 10 1 6 0;
#X connect 10 2 5 0;
#X connect 12 0 20 0;
#X connect 13 0 9 0;
#X connect 13 1 6 0;
#X connect 13 2 16 0;
#X connect 14 0 15 0;
#X connect 15 0 13 0;
#X connect 16 0 6 0;
#X connect 18 0 11 0;
#X connect 19 0 2 0;
#X connect 20 0 14 0;
#X connect 20 0 6 0;
#X restore 155 125 pd load_preset;
#X obj 46 254 outlet;
#X text 11 10 presets;
#X connect 0 0 6 0;
#X connect 1 0 5 0;
#X connect 2 0 7 0;
#X connect 3 0 2 0;
#X connect 4 0 3 0;
#X connect 5 0 4 0;
#X connect 5 0 7 0;
#X connect 6 0 4 0;
#X connect 6 0 7 0;
#X coords 0 -1 1 1 55 55 2 10 10;
#X restore 23 513 pd presets;
#N canvas 1 78 1705 1361 scale 0;
#N canvas 0 50 450 250 (subpatch) 0;
#X array \$0-freq_mult 128 float 3;
#A 0 1 1.0535 1.125 1.18518 1.26562 1.33333 1.42383 1.5 1.58025 1.6875
1.77778 1.89844 2 2.107 2.25 2.37037 2.53125 2.66667 2.84766 3 3.16049
3.375 3.55556 3.79688 4 4.21399 4.5 4.74074 5.0625 5.33333 5.69531
6 6.32099 6.75 7.11111 7.59375 8 8.42798 9 9.48148 10.125 10.6667 11.3906
12 12.642 13.5 14.2222 15.1875 16 16.856 18 18.963 20.25 21.3333 22.7812
24 25.284 27 28.4444 30.375 32 33.7119 36 37.9259 40.5 42.6667 45.5625
48 50.5679 54 56.8889 60.75 64 67.4239 72 75.8519 81 85.3333 91.125
96 101.136 108 113.778 121.5 128 134.848 144 151.704 162 170.667 182.25
192 202.272 216 227.556 243 256 269.695 288 303.407 324 341.333 364.5
384 404.543 432 455.111 486 512 539.391 576 606.815 648 682.667 729
768 809.086 864 910.222 972 1024 1078.78 1152 1213.63 1296 1365.33
1458 1536;
#X coords 0 -100 128 2000 1024 512 1 0 0;
#X restore 606 253 graph;
#X obj 258 715 textfile;
#X msg 258 660 rewind;
#X obj 60 748 until;
#X obj 60 776 f;
#X obj 60 798 + 1;
#X obj 101 776 sel 0;
#X obj 60 819 mod 128;
#X obj 258 740 unpack;
#X obj 258 764 swap;
#X obj 60 569 bng 15 250 50 0 empty empty empty 17 7 0 10 -262144 -1
-1;
#X obj 60 499 openpanel;
#X msg 60 530 read \$1;
#X obj 104 114 bng 30 250 50 0 empty empty load_scale 35 15 0 20 -204786
-258113 -1;
#X obj 60 593 t b b;
#X obj 258 789 tabwrite \$0-freq_mult;
#X floatatom 385 141 7 0 0 0 base_frequency #0-to_base_frequency #0-from_base_frequency
, f 7;
#X obj 257 839 log;
#N canvas 0 50 450 250 (subpatch) 0;
#X array \$0-scale 128 float 3;
#A 0 0 0.0521161 0.117783 0.169899 0.235566 0.287682 0.353349 0.405465
0.457581 0.523248 0.575364 0.641031 0.693147 0.745263 0.81093 0.863046
0.928713 0.980829 1.0465 1.09861 1.15073 1.2164 1.26851 1.33418 1.38629
1.43841 1.50408 1.55619 1.62186 1.67398 1.73964 1.79176 1.84388 1.90954
1.96166 2.02733 2.07944 2.13156 2.19722 2.24934 2.31501 2.36712 2.43279
2.48491 2.53702 2.60269 2.65481 2.72047 2.77259 2.8247 2.89037 2.94249
3.00815 3.06027 3.12594 3.17805 3.23017 3.29584 3.34795 3.41362 3.46574
3.51785 3.58352 3.63563 3.7013 3.75342 3.81909 3.8712 3.92332 3.98898
4.0411 4.10677 4.15888 4.211 4.27667 4.32878 4.39445 4.44657 4.51223
4.56435 4.61646 4.68213 4.73425 4.79991 4.85203 4.90415 4.96981 5.02193
5.0876 5.13971 5.20538 5.2575 5.30961 5.37528 5.42739 5.49306 5.54518
5.59729 5.66296 5.71508 5.78074 5.83286 5.89853 5.95064 6.00276 6.06843
6.12054 6.18621 6.23832 6.29044 6.35611 6.40822 6.47389 6.52601 6.59167
6.64379 6.69591 6.76157 6.81369 6.87936 6.93147 6.98359 7.04925 7.10137
7.16704 7.21915 7.28482 7.33694;
#X coords 0 10 128 0 512 132 2 0 0;
#X restore 609 74 graph;
#X obj 254 878 tabwrite \$0-scale;
#X obj 267 118 bng 15 250 50 0 empty empty C 3 -7 0 15 -204786 -1 -1
;
#X obj 146 405 s \$0-to_base_frequency;
#X msg 146 374 8.1758;
#X msg 162 350 8.66196;
#X obj 283 118 bng 15 250 50 0 empty empty Db -2 -7 0 15 -204786 -1
-1;
#X obj 299 118 bng 15 250 50 0 empty empty D 3 -7 0 15 -204786 -1 -1
;
#X obj 315 118 bng 15 250 50 0 empty empty Eb -2 -7 0 15 -204786 -1
-1;
#X obj 331 118 bng 15 250 50 0 empty empty E 3 -7 0 15 -204786 -1 -1
;
#X obj 347 118 bng 15 250 50 0 empty empty F 3 -7 0 15 -204786 -1 -1
;
#X obj 363 118 bng 15 250 50 0 empty empty Gb -2 -7 0 15 -204786 -1
-1;
#X obj 379 118 bng 15 250 50 0 empty empty G 3 -7 0 15 -204786 -1 -1
;
#X obj 395 118 bng 15 250 50 0 empty empty Ab -2 -7 0 15 -204786 -1
-1;
#X obj 411 118 bng 15 250 50 0 empty empty A 3 -7 0 15 -204786 -1 -1
;
#X obj 427 118 bng 15 250 50 0 empty empty Bb -2 -7 0 15 -204786 -1
-1;
#X obj 443 118 bng 15 250 50 0 empty empty B 3 -7 0 15 -204786 -1 -1
;
#X msg 178 328 9.17702;
#X msg 194 306 9.72272;
#X msg 210 285 10.3009;
#X msg 226 264 10.9134;
#X msg 241 378 11.5623;
#X msg 258 355 12.2499;
#X msg 274 333 12.9783;
#X msg 290 312 13.75;
#X msg 306 288 14.5676;
#X msg 321 264 15.4339;
#X obj 135 43 loadbang;
#X obj 262 619 outlet;
#X msg 259 551 set scale loaded \$1, f 27;
#X msg 59 471 symbol .;
#X connect 1 0 8 0;
#X connect 2 0 1 0;
#X connect 3 0 4 0;
#X connect 3 0 1 0;
#X connect 4 0 5 0;
#X connect 5 0 7 0;
#X connect 6 0 3 1;
#X connect 7 0 4 1;
#X connect 7 0 6 0;
#X connect 8 0 9 0;
#X connect 8 1 9 1;
#X connect 9 0 15 0;
#X connect 9 0 17 0;
#X connect 9 1 15 1;
#X connect 9 1 19 1;
#X connect 10 0 14 0;
#X connect 11 0 12 0;
#X connect 11 0 47 0;
#X connect 12 0 1 0;
#X connect 12 0 10 0;
#X connect 13 0 48 0;
#X connect 14 0 3 0;
#X connect 14 1 2 0;
#X connect 17 0 19 0;
#X connect 20 0 22 0;
#X connect 22 0 21 0;
#X connect 23 0 21 0;
#X connect 24 0 23 0;
#X connect 25 0 35 0;
#X connect 26 0 36 0;
#X connect 27 0 37 0;
#X connect 28 0 38 0;
#X connect 29 0 39 0;
#X connect 30 0 40 0;
#X connect 31 0 41 0;
#X connect 32 0 42 0;
#X connect 33 0 43 0;
#X connect 34 0 44 0;
#X connect 35 0 21 0;
#X connect 36 0 21 0;
#X connect 37 0 21 0;
#X connect 38 0 21 0;
#X connect 39 0 21 0;
#X connect 40 0 21 0;
#X connect 41 0 21 0;
#X connect 42 0 21 0;
#X connect 43 0 21 0;
#X connect 44 0 21 0;
#X connect 45 0 20 0;
#X connect 47 0 46 0;
#X connect 48 0 11 0;
#X coords 0 -1 1 1 360 60 2 100 100;
#X restore 95 511 pd scale;
#X obj 35 762 outlet status_message;
#N canvas 0 50 1858 1037 send_gates 0;
#X obj 60 66 inlet;
#X obj 63 742 s \$0-to_gate01;
#X obj 73 722 s \$0-to_gate02;
#X obj 86 701 s \$0-to_gate03;
#X obj 96 681 s \$0-to_gate04;
#X obj 107 661 s \$0-to_gate05;
#X obj 117 641 s \$0-to_gate06;
#X obj 127 620 s \$0-to_gate07;
#X obj 137 600 s \$0-to_gate08;
#X obj 148 579 s \$0-to_gate09;
#X obj 158 559 s \$0-to_gate10;
#X obj 171 538 s \$0-to_gate11;
#X obj 181 518 s \$0-to_gate12;
#X obj 192 498 s \$0-to_gate13;
#X obj 202 478 s \$0-to_gate14;
#X obj 212 457 s \$0-to_gate15;
#X obj 222 437 s \$0-to_gate16;
#X obj 233 416 s \$0-to_gate17;
#X obj 242 396 s \$0-to_gate18;
#X obj 255 375 s \$0-to_gate19;
#X obj 265 355 s \$0-to_gate20;
#X obj 276 335 s \$0-to_gate21;
#X obj 286 315 s \$0-to_gate22;
#X obj 296 294 s \$0-to_gate23;
#X obj 306 274 s \$0-to_gate24;
#X obj 317 253 s \$0-to_gate25;
#X obj 327 233 s \$0-to_gate26;
#X obj 340 212 s \$0-to_gate27;
#X obj 350 192 s \$0-to_gate28;
#X obj 361 172 s \$0-to_gate29;
#X obj 371 152 s \$0-to_gate30;
#X obj 381 131 s \$0-to_gate31;
#X obj 391 111 s \$0-to_gate32;
#X connect 0 0 1 0;
#X connect 0 0 2 0;
#X connect 0 0 3 0;
#X connect 0 0 4 0;
#X connect 0 0 5 0;
#X connect 0 0 6 0;
#X connect 0 0 7 0;
#X connect 0 0 8 0;
#X connect 0 0 9 0;
#X connect 0 0 10 0;
#X connect 0 0 11 0;
#X connect 0 0 12 0;
#X connect 0 0 13 0;
#X connect 0 0 14 0;
#X connect 0 0 15 0;
#X connect 0 0 16 0;
#X connect 0 0 17 0;
#X connect 0 0 18 0;
#X connect 0 0 19 0;
#X connect 0 0 20 0;
#X connect 0 0 21 0;
#X connect 0 0 22 0;
#X connect 0 0 23 0;
#X connect 0 0 24 0;
#X connect 0 0 25 0;
#X connect 0 0 26 0;
#X connect 0 0 27 0;
#X connect 0 0 28 0;
#X connect 0 0 29 0;
#X connect 0 0 30 0;
#X connect 0 0 31 0;
#X connect 0 0 32 0;
#X restore 386 748 pd send_gates;
#N canvas 0 50 1858 1037 send_velocities 0;
#X obj 60 66 inlet;
#X obj 63 742 s \$0-to_vel01;
#X obj 73 722 s \$0-to_vel02;
#X obj 86 701 s \$0-to_vel03;
#X obj 96 681 s \$0-to_vel04;
#X obj 107 661 s \$0-to_vel05;
#X obj 117 641 s \$0-to_vel06;
#X obj 127 620 s \$0-to_vel07;
#X obj 137 600 s \$0-to_vel08;
#X obj 148 579 s \$0-to_vel09;
#X obj 158 559 s \$0-to_vel10;
#X obj 171 538 s \$0-to_vel11;
#X obj 181 518 s \$0-to_vel12;
#X obj 192 498 s \$0-to_vel13;
#X obj 202 478 s \$0-to_vel14;
#X obj 212 457 s \$0-to_vel15;
#X obj 222 437 s \$0-to_vel16;
#X obj 233 416 s \$0-to_vel17;
#X obj 242 396 s \$0-to_vel18;
#X obj 255 375 s \$0-to_vel19;
#X obj 265 355 s \$0-to_vel20;
#X obj 276 335 s \$0-to_vel21;
#X obj 286 315 s \$0-to_vel22;
#X obj 296 294 s \$0-to_vel23;
#X obj 306 274 s \$0-to_vel24;
#X obj 317 253 s \$0-to_vel25;
#X obj 327 233 s \$0-to_vel26;
#X obj 340 212 s \$0-to_vel27;
#X obj 350 192 s \$0-to_vel28;
#X obj 361 172 s \$0-to_vel29;
#X obj 371 152 s \$0-to_vel30;
#X obj 381 131 s \$0-to_vel31;
#X obj 391 111 s \$0-to_vel32;
#X connect 0 0 1 0;
#X connect 0 0 2 0;
#X connect 0 0 3 0;
#X connect 0 0 4 0;
#X connect 0 0 5 0;
#X connect 0 0 6 0;
#X connect 0 0 7 0;
#X connect 0 0 8 0;
#X connect 0 0 9 0;
#X connect 0 0 10 0;
#X connect 0 0 11 0;
#X connect 0 0 12 0;
#X connect 0 0 13 0;
#X connect 0 0 14 0;
#X connect 0 0 15 0;
#X connect 0 0 16 0;
#X connect 0 0 17 0;
#X connect 0 0 18 0;
#X connect 0 0 19 0;
#X connect 0 0 20 0;
#X connect 0 0 21 0;
#X connect 0 0 22 0;
#X connect 0 0 23 0;
#X connect 0 0 24 0;
#X connect 0 0 25 0;
#X connect 0 0 26 0;
#X connect 0 0 27 0;
#X connect 0 0 28 0;
#X connect 0 0 29 0;
#X connect 0 0 30 0;
#X connect 0 0 31 0;
#X connect 0 0 32 0;
#X restore 516 753 pd send_velocities;
#X obj 522 515 vsl 23 64 0 1 0 0 empty empty vels 0 -9 0 10 -191407
-1 -1 6300 1;
#X text 803 27 ms per measure;
#X text 13 27 bang per measure;
#X text 450 591 frequency;
#X text 15 591 status messages;
#X obj 1415 2172 outlet amplitude;
#X obj 1009 1596 t b b;
#X text 838 592 amplitude;
#X connect 4 0 75 0;
#X connect 7 0 250 0;
#X connect 10 0 251 0;
#X connect 13 0 252 0;
#X connect 16 0 253 0;
#X connect 19 0 254 0;
#X connect 22 0 255 0;
#X connect 25 0 256 0;
#X connect 28 0 29 0;
#X connect 28 0 145 0;
#X connect 29 0 28 1;
#X connect 30 0 257 0;
#X connect 33 0 258 0;
#X connect 36 0 259 0;
#X connect 39 0 260 0;
#X connect 42 0 261 0;
#X connect 45 0 262 0;
#X connect 48 0 263 0;
#X connect 51 0 264 0;
#X connect 54 0 244 0;
#X connect 54 0 306 0;
#X connect 71 0 72 0;
#X connect 72 0 28 1;
#X connect 76 0 265 0;
#X connect 79 0 266 0;
#X connect 82 0 267 0;
#X connect 85 0 268 0;
#X connect 88 0 269 0;
#X connect 91 0 270 0;
#X connect 94 0 271 0;
#X connect 97 0 272 0;
#X connect 100 0 273 0;
#X connect 103 0 274 0;
#X connect 106 0 275 0;
#X connect 109 0 276 0;
#X connect 112 0 277 0;
#X connect 115 0 278 0;
#X connect 118 0 279 0;
#X connect 121 0 280 0;
#X connect 140 0 325 0;
#X connect 141 0 142 0;
#X connect 141 0 143 0;
#X connect 141 0 144 0;
#X connect 141 1 146 0;
#X connect 141 1 147 0;
#X connect 141 1 148 0;
#X connect 141 2 149 0;
#X connect 141 2 150 0;
#X connect 141 2 151 0;
#X connect 141 3 152 0;
#X connect 141 3 153 0;
#X connect 141 3 154 0;
#X connect 141 4 155 0;
#X connect 141 4 156 0;
#X connect 141 4 157 0;
#X connect 141 5 158 0;
#X connect 141 5 159 0;
#X connect 141 5 160 0;
#X connect 141 6 161 0;
#X connect 141 6 162 0;
#X connect 141 6 163 0;
#X connect 141 7 164 0;
#X connect 141 7 165 0;
#X connect 141 7 166 0;
#X connect 141 8 167 0;
#X connect 141 8 168 0;
#X connect 141 8 169 0;
#X connect 141 9 170 0;
#X connect 141 9 171 0;
#X connect 141 9 172 0;
#X connect 141 10 173 0;
#X connect 141 10 174 0;
#X connect 141 10 175 0;
#X connect 141 11 176 0;
#X connect 141 11 177 0;
#X connect 141 11 178 0;
#X connect 141 12 179 0;
#X connect 141 12 180 0;
#X connect 141 12 181 0;
#X connect 141 13 182 0;
#X connect 141 13 183 0;
#X connect 141 13 184 0;
#X connect 141 14 185 0;
#X connect 141 14 186 0;
#X connect 141 14 187 0;
#X connect 141 15 188 0;
#X connect 141 15 189 0;
#X connect 141 15 190 0;
#X connect 141 16 191 0;
#X connect 141 16 192 0;
#X connect 141 16 193 0;
#X connect 141 17 194 0;
#X connect 141 17 195 0;
#X connect 141 17 196 0;
#X connect 141 18 197 0;
#X connect 141 18 198 0;
#X connect 141 18 199 0;
#X connect 141 19 200 0;
#X connect 141 19 201 0;
#X connect 141 19 202 0;
#X connect 141 20 203 0;
#X connect 141 20 204 0;
#X connect 141 20 205 0;
#X connect 141 21 206 0;
#X connect 141 21 207 0;
#X connect 141 21 208 0;
#X connect 141 22 209 0;
#X connect 141 22 210 0;
#X connect 141 22 211 0;
#X connect 141 23 212 0;
#X connect 141 23 213 0;
#X connect 141 23 214 0;
#X connect 141 24 215 0;
#X connect 141 24 216 0;
#X connect 141 24 217 0;
#X connect 141 25 218 0;
#X connect 141 25 219 0;
#X connect 141 25 220 0;
#X connect 141 26 221 0;
#X connect 141 26 222 0;
#X connect 141 26 223 0;
#X connect 141 27 224 0;
#X connect 141 27 225 0;
#X connect 141 27 226 0;
#X connect 141 28 227 0;
#X connect 141 28 228 0;
#X connect 141 28 229 0;
#X connect 141 29 230 0;
#X connect 141 29 231 0;
#X connect 141 29 232 0;
#X connect 141 30 233 0;
#X connect 141 30 234 0;
#X connect 141 30 235 0;
#X connect 141 31 236 0;
#X connect 141 31 237 0;
#X connect 141 31 238 0;
#X connect 145 0 141 0;
#X connect 239 0 145 1;
#X connect 241 0 245 1;
#X connect 241 0 282 0;
#X connect 242 0 243 0;
#X connect 243 0 244 1;
#X connect 244 0 245 0;
#X connect 245 0 249 0;
#X connect 246 0 301 0;
#X connect 247 0 246 0;
#X connect 248 0 54 1;
#X connect 249 0 247 0;
#X connect 281 0 246 1;
#X connect 282 0 243 0;
#X connect 282 1 243 1;
#X connect 283 0 307 1;
#X connect 285 0 288 0;
#X connect 286 0 285 1;
#X connect 286 0 289 0;
#X connect 286 0 291 0;
#X connect 287 0 292 0;
#X connect 288 0 294 0;
#X connect 288 0 299 0;
#X connect 289 0 288 1;
#X connect 290 0 293 0;
#X connect 292 0 286 0;
#X connect 292 1 286 1;
#X connect 293 0 289 0;
#X connect 293 1 289 1;
#X connect 294 0 295 0;
#X connect 294 0 296 0;
#X connect 295 0 294 1;
#X connect 296 0 299 1;
#X connect 297 0 298 0;
#X connect 298 0 296 0;
#X connect 298 1 296 1;
#X connect 299 0 28 0;
#X connect 299 0 140 0;
#X connect 300 0 294 1;
#X connect 302 0 300 0;
#X connect 302 0 285 0;
#X connect 303 0 286 0;
#X connect 305 0 71 0;
#X connect 307 0 324 0;
#X connect 308 0 311 0;
#X connect 309 0 310 0;
#X connect 310 0 324 0;
#X connect 311 0 309 0;
#X connect 312 0 311 1;
#X connect 313 0 317 0;
#X connect 314 0 316 0;
#X connect 315 0 316 0;
#X connect 319 0 318 0;
#X connect 325 0 307 0;
#X connect 325 1 54 0;
#X coords 0 -1 1 1 900 600 1 10 10;
