#N canvas 36 417 1705 1037 10;
#X obj 477 371 pack;
#X obj 1005 630 pack 60 0 0;
#X obj 694 624 pack 60 127 0;
#X obj 496 169 i;
#X obj 1005 598 i;
#X obj 496 279 /;
#X obj 1143 253 spigot;
#X obj 1143 279 print \$1;
#X obj 1182 228 tgl 15 0 empty empty empty 17 7 0 10 -262144 -1 -1
0 1;
#X text 1204 225 debug MIDI messages;
#X obj 495 300 + 0.5;
#X text 880 623 MIDI NOTE ON;
#X text 1137 630 MIDI NOTE OFF;
#X obj 694 600 i;
#X obj 496 233 * -8191;
#X obj 477 327 i;
#X obj 496 207 -;
#X floatatom 106 143 3 1 16 1 MIDI_channel #0-to_MIDI_channel #0-from_MIDI_channel
, f 3;
#X floatatom 105 169 3 1 24 1 pitchbend_range #0-to_pitchbend_range
#0-from_pitchbend_range, f 3;
#X obj 514 256 r \$0-from_pitchbend_range;
#X obj 502 349 r \$0-from_MIDI_channel;
#X obj 477 474 bendout;
#X obj 694 751 noteout;
#X text 101 101 frequency;
#X obj 782 601 r \$0-from_MIDI_channel;
#X obj 1143 195 r \$0-MIDI_debug;
#X obj 577 430 s \$0-MIDI_debug;
#X obj 704 684 s \$0-MIDI_debug;
#X obj 1005 687 s \$0-MIDI_debug;
#X obj 1079 606 r \$0-from_MIDI_channel;
#X obj 235 289 ctlout;
#X obj 235 224 t b b;
#X msg 271 257 123;
#X msg 235 257 0;
#X text 46 200 controller 123 \, value 0 = all notes off allows changing
clock delay;
#X obj 235 143 bng 15 250 50 0 empty empty reset 17 7 0 11 -262144
-1 -1;
#X obj 496 43 inlet frequency;
#X text 497 22 expect: Hz;
#X text 760 71 expect: 0-1;
#X obj 756 160 * 127;
#X obj 738 561 i;
#X obj 495 68 ftom;
#X obj 579 479 bang;
#X obj 579 501 t b b;
#X msg 577 409 MIDI BEND \$1 \$2;
#X msg 704 659 NOTE ON \$1 \$2 \$3;
#X msg 1005 659 NOTE OFF \$1 \$2 \$3;
#X obj 75 262 loadbang;
#X msg 75 300 1;
#X obj 119 323 s \$0-to_pitchbend_range;
#X obj 75 345 s \$0-to_MIDI_channel;
#X obj 756 94 inlet amplitude;
#X obj 824 134 select 0;
#X obj 877 166 bang;
#X text 231 101 amplitude;
#X text 104 121 MIDI out;
#X msg 119 300 2;
#X obj 483 138 t f f;
#X connect 0 0 44 0;
#X connect 0 0 21 0;
#X connect 0 0 42 0;
#X connect 1 0 46 0;
#X connect 1 0 22 0;
#X connect 2 0 45 0;
#X connect 2 0 22 0;
#X connect 3 0 16 0;
#X connect 4 0 1 0;
#X connect 5 0 10 0;
#X connect 6 0 7 0;
#X connect 8 0 6 1;
#X connect 10 0 15 1;
#X connect 13 0 2 0;
#X connect 14 0 5 0;
#X connect 15 0 0 0;
#X connect 16 0 14 0;
#X connect 19 0 5 1;
#X connect 20 0 0 1;
#X connect 24 0 2 2;
#X connect 25 0 6 0;
#X connect 29 0 1 2;
#X connect 31 0 33 0;
#X connect 31 1 32 0;
#X connect 32 0 30 1;
#X connect 33 0 30 0;
#X connect 35 0 31 0;
#X connect 36 0 41 0;
#X connect 39 0 40 1;
#X connect 40 0 2 1;
#X connect 41 0 13 1;
#X connect 41 0 4 1;
#X connect 41 0 57 0;
#X connect 42 0 43 0;
#X connect 43 0 13 0;
#X connect 43 1 40 0;
#X connect 44 0 26 0;
#X connect 45 0 27 0;
#X connect 46 0 28 0;
#X connect 47 0 48 0;
#X connect 47 0 56 0;
#X connect 48 0 50 0;
#X connect 51 0 39 0;
#X connect 51 0 52 0;
#X connect 52 0 4 0;
#X connect 52 1 53 0;
#X connect 53 0 15 0;
#X connect 56 0 49 0;
#X connect 57 0 3 0;
#X connect 57 1 16 1;
#X coords 0 -1 1 1 200 90 2 100 100;
